<mxfile host="Electron" modified="2023-05-09T02:10:18.045Z" agent="Mozilla/5.0 (Windows NT 10.0; Win64; x64) AppleWebKit/537.36 (KHTML, like Gecko) draw.io/21.1.2 Chrome/106.0.5249.199 Electron/21.4.3 Safari/537.36" etag="3-vmh44b8mAplAKlJOkX" version="21.1.2" type="device">
  <diagram name="Page-1" id="j-5L5Xo5aonyZbf3SgEs">
    <mxGraphModel dx="778" dy="543" grid="1" gridSize="10" guides="1" tooltips="1" connect="1" arrows="1" fold="1" page="1" pageScale="1" pageWidth="850" pageHeight="1100" math="0" shadow="0">
      <root>
        <mxCell id="0" />
        <mxCell id="1" parent="0" />
        <mxCell id="W9lq88Oc5fSQwS-0R-QA-27" style="edgeStyle=orthogonalEdgeStyle;rounded=0;orthogonalLoop=1;jettySize=auto;html=1;exitX=1;exitY=0.5;exitDx=0;exitDy=0;entryX=0;entryY=0.5;entryDx=0;entryDy=0;strokeWidth=5.5;" parent="1" edge="1">
          <mxGeometry relative="1" as="geometry">
            <mxPoint x="430" y="220.00000000000023" as="sourcePoint" />
            <mxPoint x="490" y="220.00000000000023" as="targetPoint" />
          </mxGeometry>
        </mxCell>
        <mxCell id="W9lq88Oc5fSQwS-0R-QA-28" style="edgeStyle=orthogonalEdgeStyle;rounded=0;orthogonalLoop=1;jettySize=auto;html=1;entryX=0;entryY=0.5;entryDx=0;entryDy=0;strokeWidth=5.5;" parent="1" edge="1">
          <mxGeometry relative="1" as="geometry">
            <mxPoint x="890" y="220.00000000000023" as="sourcePoint" />
            <mxPoint x="950" y="220.00000000000023" as="targetPoint" />
          </mxGeometry>
        </mxCell>
        <mxCell id="LcdQc8iV-d25lG8Cdk2--1" style="edgeStyle=orthogonalEdgeStyle;rounded=0;orthogonalLoop=1;jettySize=auto;html=1;exitX=1;exitY=0.5;exitDx=0;exitDy=0;entryX=0;entryY=0.5;entryDx=0;entryDy=0;strokeWidth=5.5;" parent="1" edge="1">
          <mxGeometry relative="1" as="geometry">
            <mxPoint x="1350" y="219.41" as="sourcePoint" />
            <mxPoint x="1410" y="219.41" as="targetPoint" />
          </mxGeometry>
        </mxCell>
        <mxCell id="AnJha9FKsQBkjCKTBRiP-3" value="" style="shape=image;verticalLabelPosition=bottom;labelBackgroundColor=default;verticalAlign=top;aspect=fixed;imageAspect=0;image=data:image/jpeg,/9j/4AAQSkZJRgABAQAAAQABAAD/4gHYSUNDX1BST0ZJTEUAAQEAAAHIAAAAAAQwAABtbnRyUkdCIFhZWiAH4AABAAEAAAAAAABhY3NwAAAAAAAAAAAAAAAAAAAAAAAAAAAAAAAAAAAAAQAA9tYAAQAAAADTLQAAAAAAAAAAAAAAAAAAAAAAAAAAAAAAAAAAAAAAAAAAAAAAAAAAAAAAAAAAAAAAAAAAAAlkZXNjAAAA8AAAACRyWFlaAAABFAAAABRnWFlaAAABKAAAABRiWFlaAAABPAAAABR3dHB0AAABUAAAABRyVFJDAAABZAAAAChnVFJDAAABZAAAAChiVFJDAAABZAAAAChjcHJ0AAABjAAAADxtbHVjAAAAAAAAAAEAAAAMZW5VUwAAAAgAAAAcAHMAUgBHAEJYWVogAAAAAAAAb6IAADj1AAADkFhZWiAAAAAAAABimQAAt4UAABjaWFlaIAAAAAAAACSgAAAPhAAAts9YWVogAAAAAAAA9tYAAQAAAADTLXBhcmEAAAAAAAQAAAACZmYAAPKnAAANWQAAE9AAAApbAAAAAAAAAABtbHVjAAAAAAAAAAEAAAAMZW5VUwAAACAAAAAcAEcAbwBvAGcAbABlACAASQBuAGMALgAgADIAMAAxADb/2wBDAAMCAgMCAgMDAwMEAwMEBQgFBQQEBQoHBwYIDAoMDAsKCwsNDhIQDQ4RDgsLEBYQERMUFRUVDA8XGBYUGBIUFRT/2wBDAQMEBAUEBQkFBQkUDQsNFBQUFBQUFBQUFBQUFBQUFBQUFBQUFBQUFBQUFBQUFBQUFBQUFBQUFBQUFBQUFBQUFBT/wAARCAGQAZADASIAAhEBAxEB/8QAHQAAAgICAwEAAAAAAAAAAAAAAAIBBQMEBgcICf/EAFwQAAAEAwIICgQICAoJBAMAAAABAgMEBREGUQcSExUhMXGSCBQWMlJTVJGT0SJBVWEXGDNygZSh0iNCVmKCorHTQ0RXY2RzlaOywjRFZYOEs8Hh4iQlw+N0dfD/xAAbAQEBAAMBAQEAAAAAAAAAAAAAAQIDBAUGB//EAC4RAQEAAQMDAwMEAgEFAAAAAAABAgMEEQUSMRMhQRQVUQYiMlJCkfAjYXGx0f/aAAwDAQACEQMRAD8A9kBaBgDzHo1tQstN7nOEW0xn5PRNzXiENE1Os81ddgMody94Eb+YH/5nxCDZhfvZ8UhXUK9W+ChXq3wWEACgAUBwgcEpKAoHoAEJQOAFAFhmhv2nDbyhOa4ft8N3qFcABYcRZ7cx3rGGIhEN8yLYVsQZjVBQA1QoAAAAAAAAAAAMwwy9EVfWpBXpCgAb3EZP2t/wiGwxByYtcW+W1ovMU1A4Cy4pKu0ueGnzFc+TTPyClr+cMYKACgKBqgqJQtAUDVBUryEGOgYAKAFoNqX8Q/jcOv8ARUNeoBYLHLy7sz/iEE4xLezPeIQ0ajFQ7jFF3xyU9hf+smKmoSoKgFC0O4wwaoDFQAcJQShqhaADVCCRsy6KahtcI25/WKGrULQUbAAVAJVpqgqFoCgQgoCgcFBSoqFoAOJUJQPQAaoRYKhaADBSloGqCoWgRBQFAwBQpEZ6iM9gaodg6a9G0ZMim/7QGtQ7jBQZQgBQAoCgAAAAAACgKAAAAAEoHBQFACABQAlAFodxhqBxFhKBqleQkYqHcYsKKBgAoFIWgaoAtAhSUAHoEoKQUAGC0BkAAADGkoCgegKHcYlISgaoKhRCs1DuMNQOAZIAAR+E5vpbNIAAGqMeOnpF3iUmS+bp2AFoHAAAAAAFgDVCgBQGChgY5CoAoapXkCQDLUryGHGK8gxpMtZGQKmpXkFChqgAAKgBKWgA1QoEMAAAUtAUDAAFQVCgIjP1AAJQOABFRISgcACKiQlAWANUKGQhSzolJqO4iqBS0AMmIron3A4u71a90wRjC0Gfir/UubpjGtCkHRRGk7jKglGMAACLC0O4wUO4xlqCosKSoapXkMYAqEoJodxhhkbbW98mk1/NKoQPUSEoHCiwablZ/K8ZT8wkeYMnKv6T3I8xo1C0CC3ykq/p3iJGnFcW/iyn/wDfqI/2DWBUUKAFAUBYAUAGApQUBQMCFoGqAKCVcZxlvs3+/UFzjLvZh+MryFWAZQi0zjA+ykeINJ9xlfyLBQ/6WMMAAqloCgYAxChgtAwBaADBaAGAAAsFnn0vZ0u+r/8AcJnp3sMF4ReYraBhkN7PS+zw31chpxMS6vnpQX9XpChaDGgoCgaoKiBQABQ7jAFAUDVAJVjFQZGXlMRNSI6XiABCrHlNMet/USE5Qx/a1bpDRGKh3GKxq15TTLtS90hWvPKfiamR0vEUAJSEE0O4wUGSoisdDuMFBkqFqAxAodxgGWoDEBtbqPkl5PboBQAsGwIqJCUFDhqhaAANUKCgADABUAlChqhaAoEDAAAUFQtAUDACoAtAwABUAWgBgAE0AQAAAWCoKhQUEpTVBULQFBENUFQtAUAMCoAosAAFAUFWAZajEGqBShqhaABAARUSAioKhaAANULQFA4BKADVCgAIHC0EoQNULQFAgaoUAioUbIAUO4xOKdxirU1CgACGqFEVE0O4wBQMJoCh3GAgAbEV0T7hORc6Cu4AgA2Iron3BuLu9WvdMSjGAZuKP9S5uGF4u71a90xBjAMvFXupc3TE8SiOod3DFgwgGzm2L7K/4Z+QU4CJTrh3S2oMVYwB6jPmuN7I/wCEryBmuN7I/wCEryEpWqAbObovsr3hmDNkZ2R/wz8giNSgeg2s0x3Y4jwleQnNkZ2R/wAM/IKNSgKHcY2syxnVObhhszR3ZftEGlUryBUryFlmGP7M5vkIzHG9nX4hAK4JUWeZYrs6d4NmKO7MvfIEqtqJoLLk3G9A/FSI5ORXRb8QhYRWYp3GFxivIW2YIg+q8Qg/JmM6MN4pCqqqBKCyzBEfzXiEJ5PRXWwXjp8xKKrFO4xNSvIWx2fiU63oItr6fMY8z/0uG8VPmIK6gQWeZS66F8dPmGzD/tGD8ZPmLBWVK8hItcyNdugPGMJmpPboHxTFFXiK6J9wgWuZWe3QviKCZqa9pwu8oSisqV5AxivIW+Y4f2pCbygmbYb2hDd6hBUYxXkJLTq0i0zZD9vhu9QyMS6DLXN2i2pWApKleQWou+IS/wBpNeEYnN8Af+sW/CMA3KhzqIHwE+YEWlinOYiFV81tB/8AUdO8r4LrXO8PKcIECnXEpLashgtdy8pInssP4KRr59eOvyOjX6JaBxg7Sy0tcUgv0yGtEW1lTZkSI1Kjc5xEZHQWI5xykj72PCEcqZjcx4I4iVpZaeqKQf6ZCeUku7SjfIZDlnKuN6Z7hCOUcd2hO6kcT5VSnr0b5CCtJLz1RpHsoA5Udp5iR0N4iO7FSMvKuZ9b+oQ60muEeXwkXinFElVx0IwvwsSfrkb5AOyuVUf15bqRGf5h2pe4Q6x+FuSdNO+Qz/CzJuvR4heYLHYWfYrtDv2B+UkaZV46dNiR1x8Lkj6xO+Q41FYbZSzGZFOlPuMgV3SdoIkiqcW6RXmv/sNQ7UuFrj3y2uH5Dr1/ChJjh6E8gzuJZCgfwhwStSWj2Ol5iVK7j5dO+0HvEGMrZOO86YPFtcPyHTHwjwXTb3yD/CPBdNvfIYkdwlatwzoUdU7idMbhTiKPVEOn+mryHSzGE6WlG4hqaJXRNZVHJGsK0ob5zyE7VkQsK7EzlEde5vq8gZwiOucHXnwsybr0eIXmMnwsSHtjPip8xUdg8ei+1L7xg4+9SuMqnzxwP4XJJ2lvxE+Y0fhrs/x7i/GGdmVT5gsdl5Z7pL3hHGHemrfHBPhekfamvFT5hfhYkPbGfFT5gyc+KPePUpR/pgyr9694dXzbDfIoDmvN+IQ4/wDGQlHWJ3yFR3djOVpjqrdlAuO77v1h0WnhHylcRVK0qK8lkYy/GRlHWo3yBK7vVEOo5y1J2rEEpwyqS1Uvyg6AjuEvKl81aVbFkNmX8JGULhqOOJQdylkQI7qjJ43DepRfpjXK1JGdCSszuJQ6RjcPkqiP43CGKKGw9QXGv9Lhe4GWL0Rn/wDMc3g2f2epc3h0L8NMs7ax3DB8OUt7cx3AzeiETZER+Osxsm+pJVMqFeY8+wPCAlaOdGJLaZBpvwl5VEQ9GVpSdxLIErv0oxKtSknsMPjp6Rd484SjhLwUN8stStqRePcJmVw6sV1RtKuWVDBi7zqV5Ax09Iu8dHfGfk3XF9gwfGikvXp7yAd6cYP3AJxCiqSiMryMeepxwopWv/R4ki2UGlKOFJL4eHo89jHcZAPS56NYSo80zDhKrR8mnH+adRUfGkd6JgcvVoU9GvRtHln40D/VqCP8KN5WpJnsA5epiLG1adgxRcTkCqRlS8eWj4TsezzYV49iDGw9wiIx+HocK7W7EMOB2j8SS1X8prP1BX7wIrgMThXymEppPzJb/wDYPQ/LxfYk7wjl4/2BreG3mTywrouG4GE8Z+VwmrX/AMKf7wSfApjn4ir2El5JXohD/eDvPl3F9Q0Dl3F9Q0HMvhi6RY4FkwLXhPjS/wCG/wDsGT4l0R/KdMfqp/vB3Ny4iuzQ+4YOXEV2aH3DBXTfxLV/ylzD6r/5BmOBRTXhIm5f7lI7i5cxXZobcMJy0juphd0wWOn4rgNSaNeyx27nRKuQySf8VRj+IxZ38vJ3uN+Q7k5aR3Uwu6YjlvMf5vdFlxnlXTfxEbKfl3PvDa+4G+IlZT8t7Q97P3B3Fy3mP83ug5bzL+b3RlzgldPfEQst+W1ou9n7g2C4B9hXU4irSWiJzrDNmn/KHbHLSadNrdEcsZh1qd0Y24/COrfiNWC/KO03jN/ug/xGrBflHabxm/3Q7N5YTHrC3AcsJj1hbgix1v8AEawc+2bTfWG/3Qf4jODn2rar66z+6HY/LCYdaW6E5XTTtCe4Cuv/AIlGDjJ5Ljdpf63jKMb/AJYZPAlwZt/KOWgc2R9f8o59ytmvXp3QvKya9endGNs+WLhfxK8F/ZZ19eUM/wATTBV7Kmv9oveY5ZyqmPaVboOVUx7SrdCXBXF/ia4KfZc0/tF7zGb4oGCzJ5LMEw/rc4v43+Mci5UTbtrveQx8ppp2w90Zc4Dj3xQsE35OR39oxH3xn+KXgj/JmK+vPfvBecp5t213vIJyhmnbne8g5wFY1wUMFRc6yinPnxL/AN8ZfitYK/yML62798bufZh2p/fIGfph2uI8Yw5nwNdngzYMGNVkEfWXfvifiz4LvyIhPEX94Pn2Y9riPFPyEZ0jO1L7wB8WbBT+Q0H4i/vDN8W7Bf8AkBKO4/MYc7Rna3N9XkDOkZ2pfeA2/i8YMv5O5N4CfIZVcH3Bw1EVTg/khleUMnyFXnGI7W/9oTj0R1z2+JyLn4AMG38ndn/qKPuhfgFwa/ybWb/s5nyFTx6I657fMLxh7r3t8OVi6+AfBp/JtZv+zmfIbXwPWA/ICz39nNfdHGcu91z2+DLvdc9viq5b8E1ifyGs1/ZjP3Qy8HdiTTlTsVZ11dy4Biv+EcQy73XPb4fjDvTVvglcv5A2P/I6zX1Fr7gyciLI/krZ/wCos+Q4Txh3pq3wvGHekvfBHO+SlmfyZs99Rb+6H5K2e9gyL6ugcA4w701b4XLvdJe+Cx2RmaS+zpR4DYficp7FKvDb8h1njOdNW+JynuXvgXHudmcWlvZJV4bfkHykH1cBupHV+V+fvhcody94E7e12V/7V0ZXuo8xscdgevlm6Q6tx3es+0GO71n2id3AzBsmvoq7hv5gjeyl3ja5LTPsp95jCslLiK6J9wMRXRPuFnyejuqTvjHmKL6DfiBBpUBQ7jFhydiui34hB+TkV0W/EIUVNDuMTincYscwP/zPiEGzA/8AzPiEAq6CKleQuMxxd0N4pCMxPdOD8dPmJRU0O4xkxFdE+4bWZ19ZD+MXmMxSBSjoUVCmfuiE+YgqxBmRazptFnmVftGF+sBn5OZ6oyGPY/8A+IgrQVFnmpB/x6B8Uwmak9ugfFMUaFDuMJQWBymHLXMYQv8AeqDlLmD1TWE31AK6pXkJoLZMrYWVUx8OoryNQXNTXtOF3lCCsxFdE+4KLLN0L25rcMZM1wntRrwjFFVQJQXWbZX7TLwTC5slntIvBMBVYp3GEodxi34jLvaP9yYfNks9pl4JgKcFSvIWfFID2k54YyZCWdvd8MBUBsmvoq7hc8Rk3tN/wxi4lJ+1v+EkBTicU7jF5xSRdtf+rkMNJV1rvgpAU9SvITQWdJZ1sV4aBlyEl7RGeGgY0VVDuMJQW+LI7o3dQMWTlX9J7keYQVeOnpF3hhaVlHRiu8g3GJV0YrvIZCqxFdE+4GKdxiwrLOrivEIPlpT1MV4hAKnEV0T7gUO4xbZaU9TFeIQXjsv7M/4hAKeoegueNynsL/1gxHGpP2BfjKAUtAUO4xdZxlvs3+/UMXHYH2f/AH6gWKjEV0T7hIs+NQPs7+8GbOMt9m/36gVRY6ekXeGoL/PEt9kI8ZXkNXjsH7Nb8UgGHjDvTVvhMs71yu9QWoBklPxh3pL3wZT3L3wgARlyvz98JjOdNW+FE0BYKF+dvhqFerfCVACnoV6t8GO71n2hAAJN8y1lTaOpMLOG6Ewbw6FRJKW8vmIb0mrYXrHa7511adg8F8KGbxExthHtYxnLZettpCvXlj1lsIejsdnlvdX0sfHm38T8pbHIpnwuotZ0RBOtaCOhvkWgzoX26A8Nwm57GmRQ8minzP1NEpX7B0fI8I8wksiYl0vlsphiSZmuNRBHxt5SVYxEtxalaK3DuqY4b7aQdj5dFotFCx70Y1jZRmGSgkLuMyLQfuHVudtssM+3RzuXxz7MbeJy5DBYZcIU8/0Kx87d0V/BMOK0fQkSvCvhAbIzVY20CSTrM4ZwqfqjhkPOI+0zcvm8yjYqKmiWvRizWaFF83F5v0EOE2+tjaOEtciGOfzsod6Hy2I3HOH9PPH02v8Apa7fbTeXKXHjn5c+GvzbHcEZh0tjZqFOJjpRH8WrRp5aTJCTuUZlQg0r4WEbEpSrNMYZK1GXr2Dye/OI+exkQuKmMbGLL08Z9ZunjXVP1/QO3LFRHG5BBPE2hSknQyLTTaNHQ+jbHrGvdLPmWe891z17pvZGD7Cmdp1rg4yCipXFoJJqYim1NOJJXNM0qoZV9V47JIyMqkdSvIeO5ZhhnMIqVQExbOIdh32ky6MS6aVsNY9FsrOnpt5P1c4jHr6DUTsIRoMlkekjSdakPK630XU6PqyZfxy54XS1vV5/7NmoKhBNB803oD1CAAPUFQtAUAQAAmgCACaCAAAAmgCAVAFoJRlqEAAICoKhaAoFDVCgoCggAAoCgCKhQUBQA1RISgcABA1QtAAEDhAGagYAAAAAmgCA9QgBYFoHoIDihAAAAx4p3GPBvCSg1MTaaoJKsZEyJxaaaVIPUrYd4981HmvhG4GZxP46Ln0nbcj2nWkk9LWoYnlqNOrFLWY+r/T270dtuMsNa8TOXHn8cteWPPu8Uw5GScY9Cb/UOz4Z04CxKGXIJ1lMUjLNHENmncrr+gXVnDsVDWfzXPrFzZyN9rMOuNxHhGdB2HDnYCcyaGlpKmkbL2G8k09H2dfcdSW1p0y/VG3cdH1dtnNSWZTz7Wf/AFrtuUscKssZZil510GzoGnaOObZmzROShuYQ5N5Z8laDcb6BK9Q5vGWZfcjpZAyJ+ChYJs3FREZESyZNlilqSTWTVr+cMk0sBD8VyUYcbEO5PJY8DKI9ej6WR9r1DquhrdL+k0p+7if88uLT0e3Pl0ba20Vl7YyNb1nrMQ9n1wLpZd1tZrJddWn30Og5JgwhTKy5GaTIjdWZHTQZDdPAO81Z2ZM2cVMp5x59pJY0ueSpJox9GhvF9ZesTIIOOlEmYk6ZbNCiS1lmx7GL6MUef8ApLRmlustbWzk4nzY2a/OXtwskPMtxWROCYfeiDJplTxGrJLPViU1V949yStCoaXMpNJkomqGRlpIefsHGC2WzOCljyZfGRse/EJemcym8NkXGibXVDLDR0MkmetVw9GDzv1f1TS32WOnpf48/wDtt22n2Y8gPUIAfnfbx7uxNAUDVBUAVBUIASiaBgAqEAED1CCrE0DVBUIBQAAAQAAAAAAColAAFQCAqAKGqLAoAAIq6tOwUAiomh3GEoCwBwgaoMihaHcYaoaoMacAAAiSLG1adgnHT0i7xmYbZe+XiFo+akbnF5b293wjAVdQ2Iron3C04tLO3OeAkY8jLe0O+EkBXUDVBUIAAAAABNBAeosy7RruQKFvZZ1hlxVxEk/+geHZSwzkUpS0n8wk+Qy1CC+pRiUlDGoyP6P+weqeiruIWcM7BM/Kk+v9IhlOKlhEozYdIk878KWjaJcufIokNoZZyLKGUpxSV6KSR6atZjKbBEupsoI+sp6X7BbnMZMWuGeLa4QrouYytPMSUJ85wjEGAqq1kn9FGKMlDuMa/H4XtLO+QTObNaZZqvziAbdDuMQNUpowazQT7RrTrTjlUhsIcQ7zFEv5p1FlgYTQR6jP1Fr9wczIjoZ0MKEAAAgyUO4wuIron3CwzpC+z2O4w+dIXsDHcYCqEkk1aiM9gtc7M+zoT7RpzGL4zqZYb/q0GA1RNBAeoBAAAAAAAAAtAwACVGSh3GN2XzmIgvkUtN/PRjCc/wAT0W9wBX4p3GDEV0T7hYZ+jeua8MYZhM3435ZaXPmJxQGoGhwoZjRr0bQSslDuMYRs4xXkNagEIAFAAyhaBgAArKAAAQAAAAAE0EAAABNAWIAJoCgFQATQFARAACaAIHVWGfC41g8li1lRTqjo0mulZ3GQ7VHnDDPDFaO0rUC80h1LScqRFp0//wARjVq5TDHur1Om7K9Q3M0OeJfNdRRHCqtTjEninpHqTlFVP7BrQ/CJtnOjImYVtRmdCI1ZKp3eltLvGjOcHi35osoaK4kbOojSZ/5veQvrN2Mj42LZQuKhplEsIceS7EQZOLRRBqP011rQ0l3kMcPWzxmVxju1tt0zb6l08dbLLj57VEjDhbpwqoZbWWLjVSuui/YNlOFjCGuDJ5MOSlGVdBmei8d/ROANCLIcfiprDE5ky/BZvShGMeosbG1HUdf4RsHMZg1lEC5BREO02r0HlFBooym8jUSqkMv+rPaRqs6fjZ+/L/Tg8JhGt841x1LC1Jb+UhiqZq+kcog+Efa2GMizJEkZ6iNWsYrQ2XekqiZfm5zRKzcJRsrUmhlqrQ/WNuRyFDMlZfL8M0RrSalc4juGjXupo4d9xe90zZ9J6luMdve6WuXWS4R0W9FE3OZY/Atuc5T5GoiHoqTRzczl6YknErJRVSolEZGV5DyRHS1l/Wj7B3xgIjoiNsg1xkzPJKcZKv5uoc+23V1vM4dn6g/TOHStvNzoZ8488V2YAAB6vHE5fnHPPuAAE0EEB6hAAAAmggAAAAAAACoAAAAAACoKgFACgAAGqFAAaoKleQUJQA1QoAUAAKgCANgAAAsAAAAp6hACaAgoGBUALAAAAKAAqCoIQPUIABNB0JhFhThbeodMjS0tpGIs+ar01aj9esh37UcCwmWGirVQUG/LTQ1MGTxqL0Fi0pi9+kce708tTT9n0PQd1pbTfY56t4xss5/8ugbWy7iM/j0JIzXRB4pFppiJ0/YLbBg63D2qhGXkYxPIda24yBFsbKW3j42GcfkbzrrTeRykK0tZLReZkesWdl7O2glUbBuNWUj3nSdq45FMMtkkvcajMbNPeSYSdtdmt0Tvt1MdfCzm8e/u7Ct29HTiw0wlUIpTby8XEMvxcVaafsHALTWGmcusnEoms2i5i8w02WTVpbaPH/gy1947FhrSWsZxcpZyMXic+jTHpdyyFdN2bV2kl7sNGyiIYS7WrUM0ynmr0aTdG6bqT34eVemasvEy/wCf7edUQSoGczOXOvFEKYd0rWlVCHYMHCnC2QgiMjI4iJxyqWtOLrL3e8Z04FXoWNW5DyucodiHK5RSWFFT848fQLl/BzbBTcKgpW2bMK1RKOMp0mOXd7i6mlccceX0nRenYbbeYa+vqY44z38uGRBleO6MAxGux1U+kRRbxVLTrVoHBobAzaeZxWTfQxAMdetdVdyajvKzEghrMyqHgoVJIQlOImn+JXvHl9P22pjn3ak4fVfqrrGy3Gy+m0M5lcr8fC0AATQfQT2nD8Yk45lFAwKgqCkAAAB6hAAAAAAAAWgaoAAAAAWFBQFA1QKKhRFQVK8gRIAYp3GASgAARUQKHCBqiwKFoGBUKMoAAFEqI0c4sXboEDfhJpDQ/wDq9h355GM+dmfZ0J9oyiVV4iuifcJQWU5vpbNItM6w/s2A3VDBFTFuI/izLXzEGFIrw9QgBipwVAFoAKCA4WgCAAE0ASlCl81Jq2FUKN1mZRDGpSd0ZM8RnXNeEArgE2o9STP6BY5/mHXfqEHYtNMS1vU2pSAqTI06yMtoYOX4XnaNoWgLGGgyhaB6AVAAAAgD1C0BQCsrcI+98my4v5qDMNxCK7M9uGHbmEYn5KIcb2vUE51juvc3yBC5sjOyP+GryC5uiuzPeGYbOL/XrC5ziuviN8gGuAAmglSoAAAi4loGqALQWMjVAFDCpVjyYjerRvh+TUd0D8VIruMO9Je+DjDvTVvjKI3eTkb0f75IjMEb0IfxCGljOdNW+Fyh3L3goaLh+K/LvJV/VqqMVRL34fWEoMQ1SvILQLQ7jGUSpSAACghAEqHGKgsZRtVAFDVFQtAwAAAPUIAAAAAA9QVCAAPUFQgmgAoGBUAABUFQgBwgeoQA9QVCAAAeoQTQAUBQNUFQBUFQgAE0EB6hAAAAAAHqEAAAAqAAAACoBaBgVAAAtAwKgCoKhQAAAiokACKiQgAoGqCpXkFAAWgYABwAoCgBgAAAACaAoAgAmgKACgKCcYryBUryAKHC0O4xNSvIBFAwmh3GCh3GAxgAJoAKCA4WgAoCgaoKCUIHC0O4w9DuMIMYBOKdxgodxigoCgYFACAAJodxgIAGxFdE+4RQ7jAQJoIDVK8hKMdAwmh3GDFO4wggLQZMRXRPuC1FChqhMYryBUA9QonFO4xAAAIxivIFSvIFhaBqgqIxFdE+4CmCUD0O4wuOnpF3gQlA1ABwKQFQUCVK8gRuZBzq17phuKP9S5uGM+d4rtTu+fkFzvH9sd3z8hmMXE3+oc3DE8Qiezu7hjNniP7a7vn5BuUEx7W9vn5CUYuIRXZntwxOborsz3hmJzpFdqiPFMY85RHXub6vIYjNmiO7FEeEryEZqjexxHhK8gmdIztS+8Rx6L7UvvGUGTM8V2Z/wzDZnmHUHumMWcX+vWFzhEdc4KMuZYzqnNww2aJh1B7pjV4w701b4njDvSXviUbWZo7sv2gzNG9l+0anGHemrfC5d7pL3wg3sxRnZS3hOZYrs6d4aGXe6S98TjOdNW+FG/mOL7MW8I5NxfQb3xocYd6S98TjL6avECCwzBFe7xkiOT0Tc14hCvynuXvgynuXvhRv5hfvZ8Ug2Yn72fFIVlC/O3wUL87fGIsczOdZD+MXmHzEfWQ3jl5itx3es+0Jju9MBYZmT10L46fMPmVXtCE8ZPmK+oQBZ5mX7RhfrAbMCfaMv8b/AMRVAAWOZf8AaEB4x/dGTNKO2wHin90VFAwCyzU17Thd5QnNcN26G7hVAAWmaYH2gzumHzTA+0Gd0xUUDVBKsc3wnb2t0w2a4T2o14RiqoGBFpm6A9ot+EYTikF29vwTFcFoCxacSl3tL+5MLxSA9pOeGK2gAVZ5CWdvd8MPkJZ293wxTBwSrLi0s7W5ujHkZb2h3wkiuoACN/Iy7r3fCSGpLOtivDQK4RUryBVjk5V/Se5HmGxZT0ojuR5itGKh3GAt6SO6N3UDHxiVdGK7yFfQJQBsUDAqCoAACoKgAAKgAAAAqAA9QgAAHqEqCoAD1CAAPUFQgAAAAKgAAKgqAAAAAAABUAABUAAAAFQAAFQVAKCgA1QBULQAaoAACoKgCoAoaoAqFEVBUAtA4ioKgJCBqhagAYqDLUIAeoAlQ1SvIBISoapXkMYLGwARUryE0O4wIAAEVAqQ1QoKAhqhROIron3AxFdE+4BNQVEYiuifcIBYAUAGBkKgC0DCVjRUASoepXkEQBaBqleQmgoSgKB6HcYKByIAJoIAAUMMeOnpF3gGDVGPHT0i7wY6ekXeAyVChcdPSLvDUO4wAAAAAAFDuMAAACh3GIqAkRUFSvIKAcAipXkJAIATQ7jEUAAKiaHcYXEV0T7gE1CCcU7jBincYLEAqJoEoKtFAUD0EEZKKpaSvIY1IUAiuivqEmRlrKm0SUqyzXHdV9hhszRvZftG6u0UY0nGWmUITeqbUL/kjGm0sQvmnI1bJqf7kaPUw/tGfF/DDmWK7OneC5ji+zFvDdRaaKdIzQ7JFkWvFmajp/dhkz+LXzXpUrZFn+7D1MP7RZK0syxXZ07wbMsT2dO8LHO0T2qX+Ov7gDm8QnXFy8tsQr7oethj/lF4V3J+N6pO+J5PR3VJ3xtnaUy1xMrLatQYrQKVqjIA9iVifUYfmf7O3lpcnY7qU7wbk7GdJvvG0doqa42ALahX3gnKb/aMB4KvvC/UafzYxskYeTcbegNyei+k33hOVbh/65lv1Vz94GK1alHQppLjO4oR374l3Oj+Tip5OxnSb7w3JqO/NElP0mrFKawRqu4m7X/GIOevpKpzSEIrzgnvvjH6rSnyymFyPyXiuk33heTUT1jW8Q1F2sabKq5vAJL86CWX/wAgdq0bz6CW1O4dxJ/jIgFGX/ME+s0vyt0b+GxyaiKGeUaoWv0i0A5LO0rlSpfUdQ294S0lsPMeKx9q0EpfPSUtMjLaWMKn42tluLU5Yt1//Xn94Zevhkk0svh3tyXdP+FLvGPkyutMsmu0ebYjhk2abKqLUvqK8pWk/wDqETwwLMLmeTTaqPU30ilqDLvqHr4Y/DL07816WKzDhkRk6RkeoyPWNjkrE9oPcHGJLbVueQMM6xP5gbZ6lphWDI/poLMoszKpT6bGV+Rhv3Qw+r0vm8L6ayKzTytUUR7Eh+Syuu/UFE5aGHhdc7mxbWYf7gdE+hnObNpsrYiHP/IMbvNvPOUS6a65LK679QHJZXX/AKgoztC0nXNZwW1LP3Brna2AI6HM5oR3Gpj7gn123x8ZRj6bknJZR/w36gOSbfWLHE4u28FDlXLzil+O15CTtvCJKpxE5IrzdR90T7hof2X0q5aVlEnqiXD2IMRyVR2le4OPw1oWT1LmR7HkjcKdNHqXMz/4gPuG3/ss0llyVaP+FV3ieTDRfxtW6KGMn0PDfjzEv+PX5jFCWsgnzoapjW7j6vMY3qG2/K+llf4uR8k2z/hVCSstDq1Gs9hDisZPWYYvkJkRe+bO+Y03bYS+FVimzGEq45q7X9ofcNv/AGS6WU/k5zyaY6b+8Qfkyx0394hwRNqYZfNgn1bJk/5iCtTCKrSBeOmuke7o+0PuG3/sTTc5KzTB6lvnsUQhVl4ZOtSy2jh0PPYb2e/9ed8xvFFsvc6FfLbEr+8Mb1Hb4/K+m5MVmIZWpSj2BeS0PevuHE3I2Bhirm5RFfxlz7w1+Uss9nn4qhj9z0Pyxuk5ryYhukoPyZguoX3jhBzWHLXKIUtryvMQc2hE65RAFtcc8xPuWh+WqzHHy5ryaguoXvCOTkD1Kt4cJKawp6pVBHsSrzGuc3giKpyGUkXvhUifctD8pLjfDsLMEH1SN8hjORQRGRG2ip6vwhaRwBM2hF82QSs9kKX3hgnFomIGXqiXJJJmya1GqDSRDKdT0/GLOOxjk8vIqmTRF/WkOJ2vtTZ2zUJjREUySb0Opp+0eT7W8LqEl0abDUjkyyLXiwiT/wAw6TwicJyKtOzkUSaVkn/8UvIb8dx6nvIvL1l8YSy/GsnjoyfSy5U/aIf4RllD1JaP9MeBuXkx7NBeGnzGmeESYlrRDFtYIbZl3MbY+mEa+xEFlqKyHRxxMDEYnO9HboGpMprDOsZFtvJp9+gYIWLJ4uLqURH1tdHePzyaj2e3tXLk1Yfin28ghps9SkNqoY2YB2JTrxi2kK6WobbPiy1JcX1hHUu8XTCiSVTMiK8zGzHLny05rLjbnRV3DeShT+sj7hUca95BoeYNn+OoZcxz5miGU3kIOJyVcU67BrxETT1/aFJaT1KI/pFln5acmy+ZHqMj2DXMNjp6Rd40eNpJWLjJxrq6RlzPy5cfLYiZnDtHRDeMdxFUaZRLqYiraFLK9JGY0jebg4qi1pcP3HUWjDiWuaoj2GNeWfHh7O3wuUqxYjYgk4ptpyV/4w3iiMpD0X6J3HoHHomaE1zVpPYY0YqcKQdFPpSdxqIabnllZI7Zp8e7Unk9h2phxVa0IVWmKpREdRpT61rMjspExBv4uS5ptq1jxrhqwhzCR4QYh9qPeOHQ5VBEegy9wq5zh6jJrZcoRcQklOc5BqKpfQO7T2GpnlMo246uOMsycSwsW95WWkfeecWSrjMcCzmr8/fGvGTZCkv5VOPEmdCP11uFaUYk9Sk94+v0dHtxkeRr6st/a5XndXF6V03AZmL7ERUl6LxQFE42oyPYLPKJrTGKtK0r6huunOOHm99leq8DfCMi4KFagIlyhNaiUdB6vsnhFZmEISnnENpPUa1ERGPlvL51mqIN1CiNZayI9JDmTuGqcGyyymIdbSWvEroHh7jZ2++Lv0tT2fTaIjIeOaJxs0uNnqWk6kf0gZI2NQ84cHnCxnezLnH3zdyF6tQ7hh7byxwzJcY2ky1kbhFT7R8/lp54X3dPEk5chKY5XnGRbTFVEJPjNaHS+gzQMbDRhVSpCyvSZGJiDLRp16veMI5ebKyw8ecqh6ONoiDuWFREk/D0NtVbqDUe/DlU9V424QyWjHT6SOkWoV0zLmLCBjFo5xGW0hbMRiy1pMtpCsXEJb50QSdqaDHx9RlXTS8Sqto2G4x6hTNtJhorWRDKUwaUdCcWZ3ENZt1EVE1JaTL3GNeTPFrzCbqYism76bfS9QqI51D7eXNSa7RuRz7TfPTlNmkVc5mcO6rHbbybfQMqGMGyY9y6gYnETjKOibz1DMxNlRCX1E2hlJ6jVoIxxiFmZTA8mSyZb6SjoQtJFGoe9BtGM30l6u8Z45ceEy0l4wT5FUzMivFmcQ8WtVNorDiiKF0qItpjTenT7i8RLrSl9ElEZi3UphpVyl4yeh6KOh3GKU2CI6HoO4xXsWhVDrxHlEpfRrpGlG2jg2IvFdcyarlnQxqyy7rGy6XtXIIiKLFxqli310By/ClVWgrzHXkywnStleRTHINN5GQuoS3sofhanFN0/rC8x24Y3jw8Hc49tcthjIyrXReFefaXFZNKcZvpFpIUMttfK5xDkUI8lZnqJCyOvcN+IimYHnvNt/OURDZI8uW4iOjUQCTUlacUtZ10EOkcNmHSAZlT0LDqMlHqSR6THOrYWhl8wl8TB8YS26WtaFFoHz4whTKIZn0Q07GnFIRzDQrGI9g79tpXPLw246jUmUx4+888ZljHq06xRxCivLvGpnBXvGF+JrqOuwfTzT7MZwzmXc3eMbBpPxFdR12DFxjYMOVRWmOmt1Rnitr2FCcK+Di/lHUJ+dQhdxHCYk0BLMeDi0Pu9CpGfcPDzD5lr0bQyot1jUsu8eVOl6Uerlu7w9ds8L0mIipMHS8c0k/C2lKIekRGIrcaiHhHj6veAo9R6qmF6bp/hwZbnK175+N5Je1N95DQVwuJQzzY1s9iiHhXjyrjEZc7hjel6V8mOtcnu5PC5kjvOdbLa4XmNljhiyROt0i20HgrjGwLnA7xj9q0kz1K97/HGkfXJ7yGSF4UNmnk5VUckl3YxVHgnjPvIIcY61zXCPYYfatJlp5c3l7riOFJJIVOVVEodXckyMx15aPhcKmMzysFGnDM9E9A8oPzN1Wpwj2GK995R6iMxnj0vTj0MdxlPaPXkBwo1PfLvKa+eqn7RxG1HCbjXonItRC0Q5fj42ked0zN1/WlXcLCUsInMyh4Rca3BIinsRT66YjSb1HqIto249O0cffKLd1lJ7ry19tHrWx5Pu6xxqImB3kOY26wPT/B666qLZciIA1YrUyabNUOs7kmWs9g64iVuJOhpUR42LQy9d20dun6eP7cHH9T6nK4RJ41+RHOTiWuKJLFNjKnjkrpYuoY5dCtO85aS2mNuTRZJhMVtRKJZ0W04fop23BI6WvQENxhLLmQ63FPF79Q3NE1ZL7sq2UsajIcrsLFQbM7J+ZwbccwbVCKKURVMcLJlx7nKptFtLUqVkKOEdNdD1DHJp1tWXHyxTNaWIp+hlp1adY0OMvdMblsjgpfPOLS1Rrg+td8xR8aL0dJekdE+/YE8cJp53iOxbI4U46y8A6xDKNsndYf4XZxDxDxsvuLI9Rrc1jrYogzpTTU6fTcI4xsGn6XHP8Ak7e/Lj2epLCcKWMk8PSLeJw7jUO1ZdwtJO9keOqSVNeKstA8GMRFNZ02jezgr3jky6fp5Vry1dSfL6A/GmkXF6caRW6pDWXwtZITORZikITtIeBs4q65YXjjnWF3jX9r0svPswmvlL7vebvCulKOfGId2KIxWxPCtlbcPREeajuIyMeG+PRF5iTmCi11LaH2rSnj3dM3F4erFcMN9qIqkqleRjlkq4X8sbhcossVzoqURGPDxRBnqoewSUeo9VT2CfbNP8LNe8vcMdwvoCN5kSy3tURCslnCnlrn+kxBfpUHi3jGwbfGNgl6Xp10/U2cPeh8IWyz0NRqPQg7sYvMYU8LWRyxWSadJSLyoZDwYcctrmuOHsGu/NXT1Okf0ifadO+Lw6Pq7w9zvcJmAXD0TNIZR3Edf+oq18JaX5fLOzA0K/MMh4dVFRjXNcrsMbRTMnecbhbSFnSNOebys3tj1vOeFI009lkRzSle5JjgNoOEbHTh7LNG4SvcsdBPROX1mQY4omuaZHsMbcOl6WN5adXeZ5TiOfvYU5m/E1N1yl+OLKBwvzpCskqMcSi8z0DqrLncNwooj1GRjux2unw8rUyyyvNd82Bw9zizEzZeS6pxktaVnqHaVuuFhx+WZKEiEqe6SKH+weOjjXGua4R7DE5wO8aPo9O3nhz5Oy43C5PYiIdPj66O6zxhxOYzZc0eyzmhXvHGePq94bOCveOzT0scZxGnJv8AGD9wxpdWs6JSajuIqjS417yAzHKYiKlqvGzt7UkbPGdJloqR0MrjuGicSRRNTMiK8zFkTMTaGNfRBsklZllMVJaa3CgidB09dwK5oiQOOLbQiq1ucxKdJq2XhnrFTdWNiy+MPF51GF6NugfX9yWWGS8281LpYhSfk/8A0iPR/VHIZbLpK8l1SoeFJKecZ4np7NGkeV9djf419L6GE/nXxPiJFHQjxsvsusvFrbcQaVF9BjbYl5Fr0bR9j5nZmxcZGvOTCUyyIdPU49DIcI/pNJjVRY3B45zJHJ1bIFs/8ofWz8pdLS+Ly+PxS2uoq7CE5iXePsUzYjB+jnSGUp2wCC/yjZ5KWD9gST6i390Z47yX5jH09OPjpyaVeIzEj3D7IHZfB2SsU5LJiVccE3X/AAgOSYOy1yeUFtgC+6MrvMPnKHo45eHxv5OH0iGPk9/OF3j7IcQwdYuNmmT4t/Ek0/whc04OD/1VJvqSfujC77TnzGeO3j40OWWdU6hpglPOL5qGyxjPYRB02AnDBVzdGPlWlUQ6z03ah9en4OwkLHNOsy6Ttvq5rpwSSUjarFoQ5NLoazqmMUkS41UxaejXG6WoY/XY3xWc28fFNEqUwtSHEKbWjnJUVDLaM7MOydMqkk1OhYnrMfXS18hwaEh1U6gJaqIeMkmtyBJzSeoqpSox4Jw3xNibPWmdh5EuHS+l2rrbUEpkkF7sYWbuZ+3LDU0dPHC994clleECykrwfwkthpzMJ8qDTjIRMWibNJ9Ai/G2jzza52UTGIrBMpQWUytSvGaZzZC4PGaTlEmdK80qjjZmRazIto34ac57o+T1JjhlfTrsGU2Pk9oMHRuy5tpidQbuM6TjhFlG7ivMcLdjVmxxN4jU11fr7hZWfto7KWXWUNoxXdY0Y51uNeyyEYivfoG7G25Vx85XyqsU7jGzBGUP6yCmZEVT0FeFodK0Ol42p4vLWmUOUfEVVqvHLbN4OoKdSFqJdjihoo3cm404WKgm+kST01HFsojpJ7xuwc4UlZMvvLbSeo0+sY3n4dmnq914t4XVuWLMNxTEHIJYbLMMWK7GE5jnEK6REOJlCNK1NmewhyUpvBKrR5B0uIhoKtVANc1ST2JFx5+XtY3CTnnlWNyxp46IUSzrT0TrpG6cmJKsUyMlXGWkXtnbRSyzMJDuvRSMdbtVkSCWZF7x6wwEYZ8DyJQtVokyuGfRz1rlinMXbipOgxz1PTdGnNLPy8blZ8lJSokmaVajItBiSs7XUgz+gfTGCwy8HqVxz7cUqzsARlVDrsCkssXuI0aBZw2H7g4q1TezB7IMv3Y1evb7xt9PSfLhNnMYqksjK8jGvEWbPpD7JyVrBdauXJfgYOQxzCua6zDINJ7DJNBtP2fsKeqTSY9kCn7o0XezT+WzHS03xcgrLRTxuE2044bfPJKDPF23DfZsfOEJWpUpiUpQnGUo4dREkrz0aCH2AhZBZmWxDhwkoljRL+UNqGS3jdwv35VZ9UuQkmYA1G3V0iJNVF0dWv3DC7+ZfLZNHC/xfFXiDFxBc2/mn3D7COWdwcs1x5NJ0U140vQVP1Rp5qwYErFzZJca7iGn/CE32HzWybbnw+ReZfSxcVWNdTSMp2YUnW2kto+wKJPgzdSbyJVKVqLWSZeg6fqirmU2wNSdWLGw8nhTpWhS4j0eGM5vcMvFS7W/h8kOTDdwXkui4fUxzDtwbWXDQ5MbKoWWtKpeZGX0ZMYl8ILg2tlVU0swkrzgyL/4xum4rXdKY+Xy25Kp6J9wrYuzK4czIj0p1lcPq4eHvgzlrmlky2y5P3B0nhv4SGBtiFJqzqJLMHXOcuGgSOnekbJrZfEY3Twv8ng1uUqdQpaG1LSnWpJVIto2GYBLZVUypJXmmg565hDl0RGxuQahoeHVqSoiKoq02plb0PRTzZHcdBuwzufmcNWeGli4ictprTTaQbNxUM6aC1ncORv2tkR6nSPYQqJhaqGfh3iacJJnqLF1jZ3cRq50p4a6ZShWrTsAcoSR0MjI/ePR9gcMdh4axkPCTVmXw76+e/xcjUW0VVp5nYSYQ/GZHOoeLjepYhyT9mKOfvvLOYaXHPMdBHKElr0bRiVI1IKqlYpXnoHN4m00sJeIZES+jiaRTR9sZcxDGTLBLMtZK9Q3zLucuWWn4cfgkuSuZQ7jUe00tPNSbhEf6Q1rTKh42Iq3RJXtHX9gpnnjeisdRGTpFXFPXTYFTFEtOMkyNN5ahXn6lxt/a+xcG83E19NJ016dQ34ePW2rJIcWpN5aSGCEgm4TLVbNNdVSpUa8BCvpmeIeMTXTpo7x+YYzL4fSauXdwuXVOl8krG+eMkq/B1x/R+doGbJI6Rd4cm0HqUR7DG2TL5efFwhpER6yP6RjKHIzoVTO4gS8yTrOm0bDX4KJqv0CvVoGc8NuHlWPyhxScqkzNdxaxTxT5o51U7RzGJdQ4dFrSR3NnUcUnENppTSOS+Xo4+FAURjLyJaU+4TEvKaP0CrsDOQhw7+MSTxb6aBWTCBikzPLQizyPRWEZVuuw3GPUY0ZVJ4puIqtTiSvNVByiFZh1pNSXUKJOsyURkQyJZSs6JPGO4jqMkmXa4vbI1P2ei1JcNt9lg1Y5Ix6LTqMdDYI5+vCRZ2KYtQ9JSSp8+LurfQUY+pC9GM0eklFfqMek5vJoSNl0Y1EPZNDrVDNJ6KjxtO8DVmJPayDUlmKVK23FuREQcV6dbiIjHo7XiTLl5XUZ6mnOfhZcJPB1KJRDvTGXwjsLFxTtXYdumIRfmX/AEDypEkZKSRlQ1FVJH6y9w9OcIm1kPM5HAQZxSFst/IsZElOK2uGdB0DYmSQ9pZhEShxKOMPtUYdNwqNntH1Gz5mP7q+Qw9uVFCxDKyqkiV7y0jJxjYMc2lcbKZquCiG8g6jnN0opO0hpGtwtaDLaQ9ON8vs5FMZLm+El8VlCeQ7zm0nUyGnQ+L0odbhtKjVxbDTKSNSWtRlpIaKnVoSSlJNKT1GZUIxWhqEwR6jrsHaGBvArG24tYwxMmHiljpVdi4VsyxSvJZlijrOF9I1EWky1kXqHpfBXhgl9h7N8UW8eRrXJmVFY11bhx7rPPHDjCeUy5uPsrMJ2B6zeDWTRsXat92IlLR5CXyqEcSSnT6Tqy1/QPL/AOB6JDmeGzCNG4SLWKmMSmCSTZUSmXoxWzTfpOtfoHXfGD9wu2mUw/dXVt5lMf3Nl51T8NQyOt1B2PgKS05HRaZgTSmHvxVGQ6wy53Dblc/iZRE1h1Ggrxv1Me/HtduLnuGaZJjrTtJYjEuoaaoayZSkmz/NVrUOEMOqaOiUmZ3EQxxES9HvZeIXjH7xaSJmJW6bjDJONlrUoqkX0jDGTDHtbsMu2voTwQJ65DWMYhomqDXzCL0DTvD0cSWlJJROJMj1GSi0j5wSHCdPsHrcuW405xBXNNDhZI9g9v4FMIbVs5Aw88n0rjHyG80+3U5ny9HDLujsQoeuqpjTi4d6H1GYs2lpb56iTtOgR1aYj8Yj+kcHwz9T064NP9JvkWs9RXjj0GwUQnK/j3esc/jYJEREVyRmV9BRuS15rntEXzCHLxXp7fc+1cLcfS9Fvtm04y30kmdAlrLJHaSVZBSERCslTH5qqixlVm4iXTN52NWa2D1JP1jky4CDh0Eon/RP110C4242O/DcWvmVhqsSqxs6QpipJe/GcKhDjUqiIJ+GiIZ+HNS3Pk3KaE/SPRPDJszxdyCjmYgnGU84kJrTaPM7aihlJTUiUrURnpMfd7X9+lHh7u/u5aMzl0XAKQmKhXoZSyqknWzSai91dYqIhaTOhKIzuqOzEWpOJkC4WZlDPpJqjbmORupPZrHApg/CPxFWkEkrx6OF5eJde88KnGe6YdMQazomhn7gUFpEyg4eCgX4eJKKNXPxk0xdtw2sLqXPyr8im/7QtQxLSrUZHsMYqgxbfGiyGRqWKM0ucKImEOpLyoRK+eojoRbRV1K8gG8po6JIzP3DGzmcJXbbvIubHm+KipgqL9pkWIrdG87YWCsmTsU0SY1C/wAEluM9IzReRF6x1HL5rEyp7Lw0Q62r82n/AFF49a6dT+BU5FRDkW2o6IU4g6IO6pDky0cvON4YubzLBzLp6mGVDEqTKcbobLxUoe0x11PrMR1n1ZKKYNKKVqlJ0ESqYRpRClKiHnEtajWs6DlkZbmBmss4jivsxGTpl3FEZV2hjjnp+byP/9k=;" parent="1" vertex="1">
          <mxGeometry x="30" y="20" width="400" height="400" as="geometry" />
        </mxCell>
        <mxCell id="AnJha9FKsQBkjCKTBRiP-4" value="" style="shape=image;verticalLabelPosition=bottom;labelBackgroundColor=default;verticalAlign=top;aspect=fixed;imageAspect=0;image=data:image/jpeg,/9j/4AAQSkZJRgABAQAAAQABAAD/4gHYSUNDX1BST0ZJTEUAAQEAAAHIAAAAAAQwAABtbnRyUkdCIFhZWiAH4AABAAEAAAAAAABhY3NwAAAAAAAAAAAAAAAAAAAAAAAAAAAAAAAAAAAAAQAA9tYAAQAAAADTLQAAAAAAAAAAAAAAAAAAAAAAAAAAAAAAAAAAAAAAAAAAAAAAAAAAAAAAAAAAAAAAAAAAAAlkZXNjAAAA8AAAACRyWFlaAAABFAAAABRnWFlaAAABKAAAABRiWFlaAAABPAAAABR3dHB0AAABUAAAABRyVFJDAAABZAAAAChnVFJDAAABZAAAAChiVFJDAAABZAAAAChjcHJ0AAABjAAAADxtbHVjAAAAAAAAAAEAAAAMZW5VUwAAAAgAAAAcAHMAUgBHAEJYWVogAAAAAAAAb6IAADj1AAADkFhZWiAAAAAAAABimQAAt4UAABjaWFlaIAAAAAAAACSgAAAPhAAAts9YWVogAAAAAAAA9tYAAQAAAADTLXBhcmEAAAAAAAQAAAACZmYAAPKnAAANWQAAE9AAAApbAAAAAAAAAABtbHVjAAAAAAAAAAEAAAAMZW5VUwAAACAAAAAcAEcAbwBvAGcAbABlACAASQBuAGMALgAgADIAMAAxADb/2wBDAAMCAgMCAgMDAwMEAwMEBQgFBQQEBQoHBwYIDAoMDAsKCwsNDhIQDQ4RDgsLEBYQERMUFRUVDA8XGBYUGBIUFRT/2wBDAQMEBAUEBQkFBQkUDQsNFBQUFBQUFBQUFBQUFBQUFBQUFBQUFBQUFBQUFBQUFBQUFBQUFBQUFBQUFBQUFBQUFBT/wAARCAGQAZADASIAAhEBAxEB/8QAHQAAAgEFAQEAAAAAAAAAAAAAAAIDAQQFBgcICf/EAFcQAAECAwIJCAYGBgYIBAcAAAABAgMEEQWRBhITFBVRUlSSBxYyU3Fyk9EIGCEzVZQXIjE0sdNBVldzocEjYWJlldIlNWR0gaKj4SRDY+ImNnWClrLD/8QAGwEBAAMBAQEBAAAAAAAAAAAAAAECAwQFBgf/xAAuEQEBAAIBAgUCBgICAwAAAAAAAQIDEQQxBRMhQVESFAYiMlKBkTNhQqFTcbH/2gAMAwEAAhEDEQA/APa+hm6lKaOg9Y3iQi0pF2VuK1TWh50egiFGqKKAAoFCoehQaqa0FqAtBgAC6zCX61nEhJodfiEHxU8yxADJ6I/vGB4qeZDmMv1rOJC1qIAoUCgwAAAAC0GABaAMLQDJ5lLddD40DM5brofGhjhaFoMrmlm/GZjwFI8xl+th8SGOoNUUKAUAqGFGFAAAAAAADIZtYH+08Kj5vg/rmeFTGABks6sbYm+BSxxk1oRiUAcvM/k92dwlmUqBf6Qkt2W4NISW7LcY6gAX+fye7LwmLJSIBhaD0CgCBQKDVCYioFB6ARVlwPRdSiULihKi3oupQoS0FoupQKAAALQKD0CgFAAAACtCgAAVAAAKgAAVoUAAqAtAGAAAAAAAWgwAFRaBQaoTBUUKBQFABQAgAFAoAAFAoAAFAoACDiUAaooUCgARUXUpLQACoVFoFF1KRRQWgxWhApUUKBQmJi6Liqa0Isk/YdcNkn7DriUCoVTWgtRAAAAB6hUQAAAAB6iFGPbE6Dkd3VqVqmtAFoMUxk1oGMmtAKUXUow9BAHqIAABWhQeoCFaFB6gIBTHbtJeVqmtAACPOIXWs4kHx27SXgVFoupRh6gIAAAC0GAAAAqAAS5rG6mJwqQ47dpLyKKhUpjt2kvDEdsrcImKUAao+ax+picKklRANkYmw64fM4/UROBQhEJQnzaN1T+FSKoC0GqFRQEHFoMEwgFaFKkVLLaKsre4142i7J3uNeY8C9VVoFBqhUqEAAACtCg9QEK0KDgXlkz8nD6csrO82hPpGR3dbjEgWiKymkJLdluDSEluy3GOqFRSGqmtCICtCqRQoPUQAK0KDgIBWhQDJZ/J7svCSaRkd3W4xlRC0GZ0wm5yv8CDP5Pdl4TGj1FCAAFQBUBaAMFQFoAwtBgAudKxNS3FzzjtTeJfwDF0GAyXOO1N4l/ALTHbtJeQC0AKF3pWJqW4thS0GS07G35/y6i6WfqUx41RRJpSLsrcWw4lCoKAOJQACoC0AYioSiVAuACoAAAAAAAAABWgFBxBwEK0KD1AQCtCgAOIPUBAAAAeghLUBRBxaAUArQoAAAAAAAAAFaAUAAAAAAAKgLQBgqAoDC0GCoC0AaooAAAAFKlRKAAAFQmAioSi0BUtBimMmtAxk1oEKgUx27SXkmRibDrgEAfIxNh1wZJ+w64BB6iVHyT9h1wCDlMm/ZdcTZrH6mJwqBBQoNjJrQWoDi0LjM4/UROBSmax+picKgQUChcZnH6iJwKGZx+oicCgW9AoT5pH6mJwKPo+a3aN4agWtBi40fNbtG8NSmYTW7RuBSKIALjR81u0bw1DR01u0bw1EFuLQutHzW7RvDUNHzW7RvDUkWtF1KFF1KXmj5rdo3hqGj5rdo3hqBZ4q6lCi6lL7MZnd4vApFm8Xqn8KkUW2KupR8R2ytxd5jM7vF4FG5rTnXfxIGMyjNpt4ZRm028yOh2j6Bd1b7iYLDJP2HXEeO3aS8y3Nia3hLxdEs1oSMdk37LriuSfsOuLzQEXfIfGhJzej72ziQijH5J+w64TIxNh1xkNCP36F4ieYaEfv0LxE8yBZZGJsOuFyMTq3XGR0I/foXiJ5i6I/vGB4qeZMGPyT9h1wZGJsOuLzQ6/EIPiJ5ldE/3jA8VPMUWWRibDriuRidW64vNE/wB4wPFTzH0T/eMDxU8ylGPyMTYdcJVNaGQ0T/eMDxU8yTM5Xr4fGggxJFlGbTbzO5nK9fD40JdB2dvUv4ieZYYKomXh9YziQzOZyvXw+NAyUH4ozwQK89E3WT4kDnn/ALLKXoci5xQuuh8SC865Xe4HiJ5hbl2DnXF3CX/gMzCGeidCHKO7rkU47zlsj4hE4zYrJwpl4fTmoLe9ERAiuh6btLqJa9BNN2l1EtehqXO6T32X8VvmRc8ZHf5bxm+YQ3fnDam8QPAItN2j1EtehqXOeX3mDxoQ87pPfZfxW+YG46ZtLd5f+BDpdxrvOeX3mDxoS6Wkd9l/Fb5gbRzgtXr4Hy4vOqf32V8JDVecsHeIXGhjfpFsLeZXxm+YG76ZXWhHphxz76WbI6+X8VvmL9Lti7zK+M3zA6PpldaFdLuObfS9Ym9SvjN8yz+maQ1w+JAmOo6b/tJeWvPb/wBVvEhz76WrH6+X8Vvma39Jtn/+nxIEuy89l6xvEgvPVesbxIci+kaT6tCH6U7L24PGgHZeey9Y3iQlz6a3xnGhxf6TrO1w+JDY/pYsjr5fxW+YRXQs/mt9h8aFc8nN7Zxocc+m+y+ul/Eb5m0/SjZm3C40CG+Z7N72zjQrnk5vbeJDn/0sWR10v4jfMp9Mtgb9J+OzzA3zOp3em8RXTf8AabeaF9Mtgb9J+OzzNT+nGyevl/Fb5kwdpzme3lOIM5nt5TiOYfTnZG8y3it8zC+sFZ/WQfEQVMdp0rE1LcLnE9vKcRw71jbI3qV8ZvmT+sRZe8S3it8yCu051O703iK6VibK3HDvWNsjepXxm+ZJ6wlndbA8RoQ6/wA4GdaziQtOeT9pLzin012b1kHjQtPprs3rIPGgTHducMProfEg2nm9Y284F9OVk7xLeK3zLT6fZLXC40IpXo1lruidD63d9pe47dpLzgNk8vcpD6eIzvORC89Y+x97lPHb5kQjulF1KQYya0OGesrLa4fGhdetHZW7tvQsl2qgZVm2284D6zEntwuNC/8AWes3dAO4rDe37WOTtQU5FYvLzgnO/ebVZB/eR2t/FTrrfr9H63Z7SYimqFRQJQACgAci9SvDf9p1m/JOLj1OMLf2jyHyEb809Dc/IW6v4RefcLdX8IUeffU5wt/aRIfIRvzSb1KMMv2sR/Af+ad859wt1fwic74v9YHCfU4t79p0H5CN+cXfqb4TftQmPln/AJp2zn1D3V/ConO+L/WBxD1N7T/atPfLDepSn7QpvhO4c9bS6qV4kF56Wl1UregHFfU+iftBneAb1Pon7QZ3gOzc9LT6mVvQpz0tLqpW9CYlxv1KJD9o9q8KkXqU4MfrrbHgOO1c9LT6mVvQTnpafUyt6FkOQ+ohgv8ArXhF8ywp6iuDX67YRf8AS/JOuc7I+pwc7Y+pwHIfUUwa/XbCL/pfki+obgt+tGEHzEL8o7Bztj6nBzsj6nAcr9RzAv8AWDCHx4X5RJ6juBX6w4Q+PC/KOnc64+y4OdcfZcRylzD1FuT39ZcKvGh/kl36lfJ98Ywi8WF+SdE51x9lwnOuY2XXEoc69SPk63nCD52F+US+pNyeb3hD8+w6BzrmNl1wc65jZdcBpvqaYBdRbnzjA9SPkr+G2v8AOO8zb+cFpbx/zBzgtLeP+YDU/Uv5IvgdsfNPLz1PuTD4LaX+KTX5hntP2lvH8Q0/aW8fxIpwwPqfcmHwW0v8UmvzB/VK5Jv1btP/ABKa/MM1zgtLeP8AmF0/aW8fxIgxnqw8mn6nzPzb/wA4p6pvJb+qUT5v/uZLT1p9et4aetLeP4ii29WDkx/USD8z/wBxvVc5KP1As7xHk+nrS3j+ImnrT69byDhT1YuSv9TpDw4hJ6u/Jj+pkl4UQTT1p9et4aetPr1vJiTer9yWfqhZ/BEJPoB5Nf1HsP5WH/mIs7nN6bxBnc5vTeInlWp/oN5LP2fWL8mz/ML9BnJV+z2wvkoP5ZBnU7vTeITOp3em8Q5RwyP0CcmP6k4P/LQP8g/0Lcmn7OsFvlYH+QxOcz28pxCZzPbynERUxsH0TYC/qhgx/h0D8suPopwG/VPBr/D4X+Y1fOZ7eU4gzme3lOIRLavowwK/Vaxvl5f/ADEnMLBD9U7I+Wl/8xp+cz28pxDZ1O703iLcjc+Z+Cvweyvlm+Rrlt2lI2j9xgZr2pQxWcT28pxCUK1aCgUHKVISKigAE1F1KFF1KXmYTO7xeBQzCa3aNwKVFpiO2VuGxV1KXuZTHUReBQzKY6iLwKTBjcdu0l4Y7dpLzJaHaGiGiizyb9l1wYjtlbi+5vR97ZxIJzdj70ziEFpiO2VuFyMTYdcXWhH79C8RPMl0K7f4PiJ5iiyyb9l1wuSfsOuLzQrt/g+InmGhXb/B8RPMgW2RidW64TIxOrdcZPRH94wPFTzE0OvxCD4qeYGPyMTq3XD5GJsOuL3RH94wPFTzBlk5To2jAd2RUX+YFjkn7DrgyT9h1xc6Mb8Tl/Gb5ldFt+Jy/jN8yMpce4tsjE2HXEdU1oZLQrt/g+InmPmMv1sPiQnGUYqqa0Cqa0MjkpHe4HiN8yXR8DrGcSE07sTVNaC5eH1jOJDLrJSzftjQ07XoNkoPxRnglZZewxNCtF1KZTM7N+MzPgKPmlm/GZjwFJGEqVoupTK5nLddD40GzSzfjMx4CgYui6lDIROrfwqZbNLM+NTHgKRaMsne414GNyT9h1wZGJsOuLvRVlb1HvH0VZW9xryKLLIROrfwqJQymjLJ3uNePm+D+uZuUQYcDLZvg/rmeFQzfB/XM8KijEjZN+y64ymb4P65m5S3zix+rnOBRBaZGJsOuEyMTYdcZPOrG2JvgUTOrG2JzgUkWGRidW64MjE6t1xks6sbYm+BQzqxtib4FIow9R8jE2HXGW0jJbutwudWf8Kb44gxFRqprQy+kZLd1uDSMlu63EjF5N+y64XIxNh1xkc6s/4U3xxs6s74U3xwMZkYnVuuI6prQzWd2d8Kb44mkZLd1uAtM5nt5TiGzqd3pvEQUChYS5zPbynEGcz28pxEVAoupQLjSkXZW4XScXZdcRgBNpSLsrcGlIuytxDQKAT4ya0DGTWhAFAJaprQKprQiABqhUWgAI+NDhw8d72tZtOWiXnHOUX0g7PwOms2hxYKTHU5RMe6tTp9uPbCsL67kZ3lofPHldtd9q2xpCJVJnq16Vx6/Q+G59dMs5eMce/8q13pvplyT+jK43Z7SSJ6Y8pC6cm5neShw6yOVTBqD7vAqXi//WYiRP8A9ToFsYeS1jfdMEsFJH91IQpj8HKdt6ToblNevO55f79lMm5M9LmzYkTEZJT7n7LYTlW6gqelbMOx6SsVcTpUav1e3UaxY1vzemtMY0bSnU4sPI3/AGGgW/y54bWXMWvAhWgro/Vtl4auupU7Oq8E2dLhjnn2y7Ixsd9tH0oYdj/f7KjyP+8wlh/jQkZ6WVgxOhDmXd1FU8bRMN7bt/8A1lacSb7JdXfyOy2GsOJDY9knKOY/ouaqKjuxf0m/hvgWrxDHO3Pi48enyrnu8rs9o4I4Qswol4keXjMmoELpxYLke1naqexDYDznyfcqTbUwtgSSyr7OmbQ94yXaqS6dq/YejDxPFOhz6HLHHLD6ef8AtOvd5vJqhUUDw24AKgABUKC0XUoDVCotAoA1QqLRdShQBqhUWgUAoPUWhQACpWglF1KA1QqLQKLqUBqhUWgUAaoVFoAAAABSoVKUXUpSgFwAAADVFAAAKAA1Sog1QFHEGqAoUAaoBUUAqWgwWFkGJM2LiQYbor9liVW5D508pzHQ7Uzl7VbL9c5KMv8AsPpZRdSniHlu5O5iRjZhMyceXltuLCc1t6ofafh/PTlhu6fb/wA+OP8Atln7PPLI8OLK5yyI18v1zVRWX/YdTthFX7EqbRZPJ1gDa9l4yYS2vg/aXU2i6HMwf+T2GetfBPBu3fvGF1jWh37XbA/GChz/AGXUdJ1U+jLnGfCsn5as7FVHQcsi1hdYnRvOb5nYUTDS14+ETZrI9ZLtVW3odYzaZlI2YSkaVjy3WQrYl3NvRxqGFuA0lhPpTNbYk5TH6ONMMTG7Pb7T7HxfxLDf0WGrCes7uHTLMsvRzrDiFydTP/yjHnpP/e0Vn4nR8EP6OwLLc/6rWdJXexG9uo0lOQ22bB97OyNofuorX/gp0iyX2ZDjZg+flWS226M1G31K/hXHDpvNzyvHMW3S3j0bByXxocblBsSFDe18WJ0GNWrn9ifpPZJxPk15KZCTwukLWlnw4zrP92sNUdXsodsPnvxZ1n3W/XPiNemlnPIAKAfBu4tF1KMNUUBqlRaLqUYBAAAGqKAAAAFQAQeogDhUKiAA9RAAACoVABaDVCoCgAEUNUUAIE1F1KUoZfNLM+NTHgKUzKzvjMz8upZEYqi6lKEtSIJNUUAAAAAAKANUCmKupSuSfsOuJcZNaFznVjbE5wKBj6hkYmw64yebWB/tPComdWNsTnAoGNoQPsmBaf3mTlJ3/e1RPxLkihxWRYeOx7Xs2mrVLy+O66uyeK1f6IsC/wBW7E/w2D+WZnmjY/wyzPlm+RePm4EPpxobe85EFiWhKwfeTMFneiIhb7nZl+nO4ovp3Y6Jgtg7Z3uLAl4ndYijc3bB+HQPk/8AsXekZTeoPiIGkpTeoPiJ5kzqOonbZyd+ymiLO6iX+WTyIdB2b8Js/wCVTyLnPpbeIXGhMyPDidCI13dcilvuOq/cKycOzpf7hASU7yYpcZGJsOuLhtpSL+jAxuxC6z2zPhjPmE8zPLZtz/y1W2MXjt2kvFqmtDK6Rkt3W4bSMju63GaYxNAGqKEpqLqUShcENQIqgLQYAAAAZkJ8ToMc7upUt84hdYziQy1kxWQ+m9re8tC50um5Sv8AAtBhcm/ZdcGTfsuuL/TtodTLXoGnrQ6mVvQUY+hXJv2XXFal9p60Oplb0EFjkn7DrimTfsuuMjp6f6qV4kF09aHUyt6CjG4jtlbiheY7dpLyzoVAFAoMAtAGqKBSoVFoFALihNirqUQuqgWtBCUiAKANUUAoA1RaAAAAAAAA1RQCoFKprQ5hyz8qsPk3sPFgy7mrqpQ6XQ85ctcF+F+E+jIrHZLXT2GWdk45et4b0OzxDdNON4nu5DbPpa4UbpDuLCX9IvDS1feQoadols8m0LKYmL9fZp7bjYLAwKtqZiYkKfl4r/b9VkBFX2fb7E1E4y13buh8O6bdlqx3ZXjv6cxr30wcoGNi1h42r9JJA5UOUmZh48GA6KzaYxXJeiHoGJyBPhYMPtN9rYkVnSR0Cit7dRznlK5Npnk8sL/wtHd2Xg/5i/034ZcdHq/Tlcv/AHOGnJh1hw77Fml7GO8jYrG9ILC/J5Tm0uJtY60vK21YyyUR7Ja0IMZ7Ok2HERyt7URfYX9jWH/8PY+IuJjYmNT2Y2rt/qOPqNmWnj0ev4X0PQ+K9Rjo2X6ZW14H+kZOzP3yzpiX/fQnN/FD0XLzcCbh48CNDjM2obkcl6HklLJZrQ7vyKWnFtXB7HiNcjMbExlT2Y2qusp0+/zeeXp/iD8L9N4Xqu3psufpdMAAO+PzXGc4TO96AACUrrGTWhb1CooAAAAAFQABqihUAqIVoFAChQeogFaFB6i0AoABUAAAqAoBQAAClSoE9SfHbtJeWwAS1IhqigABQAAcSg4CAAAABQKAAtBgAWhwXDWWjMw6q6E9E1q1TvlDQ+UPk/mcK4OkJKOkvM7CrR1xz7tXmcZfD6DwXr9fQdTznPXKcR5+teBEfbv1Yb17GqZnk4e2Fbv13Iz7z0lp9v2Xi4Y4OYdT9tY8exo+JtSMu96XohmcE8F8JsHrax5LBOdezam82al6uK6epyx5x4dnU+E5y/l2Ti23vPd0LlHbattYF2pAsx74UZ/RhtRcZ3Yn6TnOFGBtp2HYX+l7Th2v+6iJE/A6Nzowv+B2h8vL+Za2lzmtWxcSJY84j9lYMtW6p0/dZfDgvhOf/kn9x52x26etj2p9X7fb9hvtktWHgWyA9FbGfPY7Ybko5zdaJ+lP6y4+hj/TUN+Z2/iTvvnZtAoztWvsMovJ3hKqWZ/oRn1Ol/S9Ht1HJ1GzLbj2ev4R0GXTdXjnlvmM/wDrT4iLB94is73sOy8gaKmAWMqfVz7Hr+jF19n9ZpMLkjwrtBf6ZYTO/wCw7lg5grL4KWXoyA5roOtq1Q8fpcMpsvMfZfi7xfp70M1dPsmd9+GUAKKB9Rf0x+M536s/q+ZAABQzRBQBqi0CQAAAtBgAAFoNQKAABQrRdSgRgVoFF1KBQcjx27SXjZVm228Cgo9F1KJQBhRhaAMKNUWgCDiUHIokx27SXhjJrQyWkJLdluG0jI7utxIxtF1KUJaprQiAaqa0FFoMA1U1oFSOgwAABQB6LqUXHbtJeTVTWhf86Y3w+XuQDF4jtlbgyb9l1xe6ctHqZa9BtPWh1MregFhUUKgAgFaBQCg4tBqhMRUXUpLUBaAp8R2ytw2RidW64nxk1oXeno2/P+XLRWrLNI/UxOBRczj9RE4FLrS7w0s/UpJGPGqLQCKkDVFAqAKgLQBqgLQYCbIROrfwqSZhNbtG4FLbScXZdcSZ1O703iAlzCZ3eLwKNmMzu8XgUts5nt5TiDOZ7eU4gEoOUqFU1oBf6Bd1briLQ7S0zie3lOIfSkXZW4ChDUlqmtCCgDVCotAABqi0AAKVK0EoBcC0GqFQAAAAAAAACoAA4g1QKiUGqFQKiDVFAWi6lGGqKAAFQABaDVAAAAAaooAADiDVAKigAAABUAAAqAAFQqAtCg9RaAFAoNUKgFRAAAAKgABUBQGFGqKA1RaANUAqJUqIRRNQKDASAAqAAAAAtBgAAAKBQAAKFaLqUClAHoLirqUCgUK4q6lGoupQIqDUFx27SXk2KupQIaDUFx27SXj47dpLwKANkn7DrgyT9h1wCgNk37Lrgyb9l1wC0Alyb9l1wmSfsOuAUKj5GJsOuEyT9h1wALQkyT9h1wZJ+w64BRBqprQWqa0AACoVTWgFaDVKVTWgtQArQpUMtD6xt4AVoGKupRc4hdYziQClBgHyT9h1wCCkuSfsOuI8VdSgUAfIROrfwqGRidW64BKAS5J+w64iABKDVHyT9h1wFxmsfqYnCoZrH6mJwqTaWfqUNKxNS3Fxb5pH6mJwKNmkfqYnApNpZ+pRtLvIoj0bN7rH8NfIpo6a3aN4akudzm9N4iLOp3em8RUV0bN7rH8NfIpo6b3WN4akmeTm9t4kFzqd3pvEWgNHzW7RvDUMwmt2jcCi51O703iFzme3lOIkS6Omt2jeGo2j5rdo3hqJnU7vTeIM6nd6bxEUPmE1u0bgUbMJnd4vApBnU7vTeIM6nd6bxCCfMZnd4vApTMpjqIvApb5zPbynEJnM9vKcRIyOgXdW64gyMTYdcWucz28pxFdJxdl1wF7oho2iWa0LLSkXZW4XScXZdcEVdaGdv8HxE8w0M7f4PiJ5ltVNaBVNaAifQrt/g+InmGhXb/B8RPMgqmtAqmtAlc6HX4hB8RPMNDr8Qg+KnmWdRagZDRH94wPFTzItDr8Qg+KnmWlRaAX+iP7xgeKnmV0OvxCD4qeZjh6gZPM5Xr4fGguZy3XQ+NDGUKAZbM5brofGguZy3XQ+NDHVEIoy2ZyvXw+NAzOW66HxoYkeogyeZyvXw+NCXJwfirPBQwgCorNZrZnxqY8BSPJQfijPBMSFRCMnmdm/GZnwFItF2Tvca8sRRUshouyd7jXlzmtmfGpjwFMMBUZTRtkb5GvF0ZZO9xrzGgBf6Msne415Nm+D+uZuUw9BqgZPN8H9czcomdWNsTfApjQLQSjiD1KhAAAHEHqIADiD1AACoFoAAqFRQC0GqFSoBB6iAA4g9QAAqFQAAqAAABUAEHqIADiD1AQAAB6iAAAAAAAFQAAAKgAo1RQGFGqKAAAAAFKlQAQaooAFQqIBcVAWi6lHoExQCuKupQoupQmqAVoupRMozabeFTAVxV1KLjt2kvAqPUiyjNpt5XHbtJeBUCmO3aS8fEdsrcEwoD5J+w64Mk/YdcOSkAfJP2HXBkYmw64coIVoNkYmw64bJv2XXEz17CIB8jE2HXBkYmw64X07hB6hkYmw64Sqa0I79g9RACpPFAAVAcUAAA4oAABxQAAEdgBUZGOd9jVXsQM2jdU/hUcwRjVEVUb9qonaNirqUdxWoouO3aS8MozabeTwGAXHbtJeNQjsKVKJEY77HNXsUVzkZ0lRvapo+FHKvZGD8TEfGgQn7L4jUW6oG9vckPpqje8tBWxob+i9q9innm1vSYk4nQfCd3Xopf4D8v8AI2n710JneeiBMd2x27SXj4ya0MUy0pOJ0JqA7uxEX+ZfN+v0frdg5kTUoAxFidBMbu+0pjJrQjmK9ilaDZGJsOuGyT9h1xPJyvcwmt2jcCi5pH6mJwKUtblGWwZXObTZZVnS/XTdr5Jl7oKIa79Ndk/EcHf8fZ+UY/Vjl2rXizvG1ZlMdRF4FI8zj9RE4FNKicv1nQfeT+D7O9bzU/8A5Fh6xli/F8Gv/wAhZ+URcpO9S6CsJ7ftY5O1CXRcLaS8x+CfK2mEsHKwbTsuYhdZCtFzm3ohsTcLpp/RjyTuydieRW7MJ3yiLKxWI7ZW4uNDN1KZF+Fk3D6caSb3pyIn8hOeETrbP8VnmR5uv90/tWy/C05tRt3i8Cjc2427xeBR9PynWWd4TxH4SSMPpx7Mb3ob0Hm6/wB0/tElHNuN1EXgUg5sTW8JeSc5ZDeLL4HlOdMt8Us/5N483X+6f2txTc2ZneEvKc25neW8Qc55f4nIfJvJ+cTfiEp8jH/NIuzD90/s4vwj5qzvXKU5uTG9N4imlpj41J/JxvzSnOqB8Vkfk435pHm4fun9pkvwbm7H3pnELzbmN6bxD6eXfpb5GP8Amlnzolvikh8m8j7rDX2sW+m/C75tzG9N4g5uTG9N4izZygLE6Fqo7uwaifSCvxVvgidVjt72HFX/ADbmN6bxEmhk1KY/nHJ/GZnwFJdPS3xea+XXyIvVY6u1hxWT0C7q33FvoqHtJeWGexPjlp/Lyf5ZXnJLfG7Uug/klfv8fk4vwyGh2ho2FttvQxmnpb4pafysn+WHOCD8YtXhg/kkXr58qX07stoZupSmiGmG05K73aXjwfyiTTstvlq+Owj77/avMZXRLNaBohhhdOy2+Wr47Ah4Qycb3c9aj+7MQ1I+/nycxm0sdrvs9vYRus6CzpRGp2uQ5Xhd6Q9i4LxMSYtCflX7MabhMW5VON4Z+ltg9JfdrbtuN+7tJzvwQ1x3+ctK9A4RWlYdkdC03eInmWPO6wvi3/VTzPnnaXLRDtX3kvNJ2x1MZ9KMDd5nx18y6eY+m+C9qyWEHQnJeL3IrV/mbo6y4bOk5G9q0PlfgF6Qmgekybh960I6fyPSeAfpk2BhJ98lJiD+8tCM38UM893k/wAnL2BzYlOsh8SDcz4er+BzeHyiWBF6EOM/u2jGX+Rk24QwX9GBOL2T0f8AymF67jvUt4fgpAh9NzWd72FlGsqHLe9VIXfWn4mn2zPWfk8fIR8Tazj2XnAMN/SRwegR8hEasOP1b5xEddUth1E3e6t9G9Yd8qeDVkRMRk47H2cdK3HlLD22JG3rax2zMxEZtNqqXmi4UcqUpbVtZRbLa5m0kx7L6mtc9ZT4R/1zt1sc7G2835HrJvhUuLNlpSyfdxJtexqnPOdX+xN+ZTzLfnV/sTfmU8zW2KSx6TsnlUSH04k4zvNVD0lgPyp4NWl72cczvPRD5uc7W6pLwYhd2dypTFk+7gyy9ktFObb7OjXZ6vsFg/LSc1Dx4MxCis2mPRyXoX2g7O3qX8RPM8peixyl2XhdZOQi2JZ+W6tYDMa7GPQGfWNuln/IN/zHDt67X0XHmTu6sdU3NwzSV6+FxoRvZIQ+nNwG96K1P5mmswosuJ0IEi7uwIimLtnCi2tzhXHPfHOn+G+PRPIfpV8tTotn6JZHY9upr0U8mc75jfZv+JcYc4XRcL7aykWqs2v0XmqZxC6xnEhr0mjycWnU2Xjitrh2860ff2hMM7yqhXnXH2XGtZRm028yD4ESHiY0N7cfo1aqY3ZrOzLTNvdwWx6J9HflqdgXGzC05iG+W6x70Rt57QwA5TLPt37MnE7rkU+W9kzEKH04rG95yIdRwc5e5nBT3ERHd11TyOt6KX6eG2qz1fSa0ntmvcuSN+7XG/AxeI7ZW48s8h3pGz2FETEmXKx+y9aLcejX4SwYfTmITe89EPB3dPdXHEdM9ezYstD223mMtb+k6H1u77SOFMwY/u4rIncciklDnk47sdnpxyt6k2O3aS8tMozabeUqW5hr9ezLUMzlGbTbzD47dpLyfLQ+sbeTLG3Zl8R2ytxruTfsuuMglrvd9nt7CFY8Nv2xGJ2uQzzs9F8fXsq+13w+n9XvewxGUZtNvLq1oMSJ0GOd3UqYaqa0KY2L8VNZMVkPpva3vLQzGk5DqP4Go57L9fC40L7LQ9tt5pLFMpb7NgqZPKM2m3mHy0PbbeXVRbDDHL4Z2qa0MM+BEh9OG5veaqFm+3Uh9N7W95aD2zbn9tLyOZU5Y34X1CkOKyIn1Htd3Vqa+/COFD6caG3vORCaxp+W3iFxob6/V5vVTjhl6k1THMtSTiRMRk3Ac/ZbEaq3VLtY8NsPHWIxGbSuSl5vJXlbPZTHbtJeYefw3svB5uM9YUJut7kan8S8mY0OS+8PbA/eri/ieKvSEwytey8IMzhxnOk+uRasv+w116POyn+k6/dq/LZhvzjtrHhxWRmbUNyOS9DlVrRWROg9ru6tS1ta2lidByO7q1LXLw+sZxIfS6tPlY+jW2J8ozabeJloe228sctD6xt5BlGbTbzpxVtXGO3aS8yVm23or3bkXsUwGUZtNvFx27SXkZ6fN7r4PVXJxy26F/1nMw4veiIeguT/ANIGQt5+Ta+FEfsteircfOPTDjsPIHbdLe9rkT/ieR1nST8rr1Wer6EW5aErCsL68zBZ3oiIfP3l5s2DBw0y8i9s1B6yAuO29DvHpC8oM1g9g5lZJr48LrISYzb0PGNo4Sz1q+8nGp2vQ5tGjy8vRn1FnoiyrNtt5HEjwoUTEfEYx+y5yItxYZaHttvNrwJWy4VtY9rsZEZtPVKXn0f/ABjztlno1tI8N32RGr2OQhx27SXl5b9lQ7M90qO7vtMPUnFTGxc47dpLybHbtJeY5iZTofW7vtJaFM/Z0YWO68gnKc/AO2seJFbLs2ojkal6nr5nLfZcToRpd3diNX+Z8132hHh9OG9veaqGesXC62ViMYkR+O/ot9tXdifpPK6zpZ1GMt9nodNlj9Xd9HrAth0zDx4X9KzaZ7UvQ2m2bb/tJecl5PbaWTsCsw5ICa4i4v4m+2smU6H1u77T4vZjccrjX1mNmWM+n1fJB9pRYfTY5veRUIaLqUubWlo0ToQnu7rVUXJv2XXH6bHx0yx+V7iO2VuNyw2sSzsFtEaGjzM3++RVNZoZPDOWmG6LrOMTE6VXp9XtFZbMpeOKsKprQjyrNtt5godqRI3u2q/upUu4j2wW40RyMbrctEK012V0Hksw4TB22spEjMgs2ojkan8TcLW9IO14nQnWu7r0U4Ploe228fLQ+sbec+zT5vHLpx23X2eueTn0mo0T79MslP38RGfidv8AWSsXfZPx2eZ81tMOM3nk5vbeJDjz8Nm7+FNm67OOX0q+mOwd9k/HZ5lz9Mtgb9JfMM8z5n6eX4jMXqNp/wDvGYvUwvg+KuG7yuz6S/TxYu9ynjN8yP6dbH3qV8ZvmfNTTrviEzepPpmJv01/ETwfFtN3m93vK3fSnsmzvczkq/uR2r/Mv7F9JKxp37zOykH95HY38VPnla1rvidCru77Qzqd3pvEL4PF/P8AK7PpX9OWDHxH/qp5mpesXZW8y3jN8z5+6afv01/EuNIzG/Q/EQpfB8Z3a4dXX0ch8olhxvdzMq/uxWr/ADJfphsLfJTx2eZ844mGEezvcz00/u1Upz3tTeE4il8IxdGHV5Po/D5crJje7mJZ/ditX+Zgvp2g7/L+M3zPnTEwrmrO9zNzj+6iqT89rV3j+Ing+LfHq6+glrcv0lE6Dob+69FNKtb0r5WJ0Hwnd16KeK9Nv3+ZvUt9KRdlbjfX4RhOWO7rLOHoO1vSltGL0HK7sWpY2T6SlvQ+nMq3vOocJqmtCXLw+sZxIdWPh2Ors8vfuu7j/T0NZPpCWvDtrHfOtazac9ES89OWL6RNlzti5OZmJeC/ZiRWtX+Knzsx27SXkvOC0t4/5ib0ccOUsen+UL0p5+d+7vWP+6XG/A45hzylRcL/AHr0X/ic403/AGkvFziF1rOJDbVp8rnhlWSyjNpt5G9Uh9NUb3vYWmMmtC4tNjpn3LVi9xK/gdUQhyrNtt5TLw+sZxIY57kh9NUb3vYW+O3aS80iYyuO3aS8myb9l1xjctD6xt42l3CtcWRy0PrG3mwYOYWxsFLax4CK5m032peaTjJrQjfakSH02q3vJQxz0zb3b42O44R8s0TCuy9GTEZrYOtzkRDlGWh9Y28xjI0OJ0Htd3VqRZVm228jHVNXZlt9eOGfbZc6+SiTjZSO6UhdOYSE7Js7XUohbQrby/u3JE7q1Nz5C8M7TkrTh4PwYMtatgzvvrLiqjmt7Yn6DeeV/k5sSwoePZkJkqzaWiJeMnDt9nIIdqxLR9+is73sLbGTWhTEdjYuKuNqp7SDGTWhfWxi6sl7YfTcje8tCcx1TIYya0NKi1a2taEeJ0Ib3d1FU2Tk4moNi21ZkS04sOKxnSc5yUb2r+gwFQZCfE6DHO7qVMNmqbe6cbPqjv8Agd6RUeyeUTFtG12x7G6rJIqHb/WTsXIZfPZPI9Zl2Yt9TwPBk48zbeUhQIkVm0xiql6HQY3IvactbeNFnmwrP+MPdSHwr7Dz9/h2O3jl9Np677XH8t7tQqmtDHYq6lLyhGxqxOgiu7vtPTxfKpKlzaL22r7xyJ2qWWO3aS8rVNaF+LV8apYHJxO4U/dHule8lDN4S8nMHA3AhJi0rRgRLY+DLEbk+OomDGF0WxXI1Ko532Iv2qZCbmIVqtYtsRGRkf0Vc5Prdmsjl6HT2evq0zRDSuhOh9Vfr9H2dLs1my4khvkv4rfMs87gf6L/AKaH9TpfXT6vbqD0deU+WIdYLmNxnQ3tbrVKIVyMTYdcdvwHsnk7t7CPR8/LNlpfbjzaMbeqnrhPRm5G1hw353J4kToO0y6juxf0mee7yv5b468dvevnHoT+y64roF3VuuPqb6l3JRusL5pvmS+pryR9TA+cb5kTbdndf7XD5fKvQLurfcWr5WPD6cGI3vNVD6xS/oW8lE3AZHgSsONBf0YkOaa5ruxUWimPtb0LeSmL0JRju7NIv8ymfUTV2q+PS4/L5T5jM7vF4FCBDfNe5Y6N+7TG/A+tPqjcl/6uWZc8t8IPQt5JrY6NhvkP92i+Rl99Plf7XH5fKrRLNaFNDJqU+nz/AEKuSqH05Nje9NIn8y79Srkr3NnzKeZadTjs71F0+X2fLnQn9l1wmhU2VPqr6k/JZuTfmU8yWJ6G3JRB95DYzvWnET+Rebdf7p/ZMb8PlLoB3Vv4SDm7E6mJwqfVuP6HPJDK++ZLwu/Osb+Kkvqa8kfUwPnG+ZpLL2qeK+UGgXdW+4tIlmTkLpykdnehqn8j6v8Aqa8knUwPnG+Z495aMHOTOxP9XMhTf+7zrX/gpZW6ps7vLr4EWH04b295qoX2hk1Kb9azrKidBjHd1UUss0levhcaFsWWWvHV2rSajxZOPAbjRIESG3W5iohs+f2H1kDxG+ZtnJfJ4IzFuZthBNubIbxHejYfEvsGSswx2d65qzByLE6MCI7sYqkaWJjfY1V7EPXNqckPJxbn+qo8vD7k+zzOL4R4OSdjOxWxoSO1YyVLYK59Nh8uV5tG6p/CplbHVE+1aGwxJWUgvxIkxCY/Zc9EU59bVsraf3Bc27VoTk4d2vHXxxVpazkidBUd3faWVU1oTsTKdD63d9pZI9rvsci9ijFy1Njt2kvJcZNaFhVNaFzDTLe7+v3faTVavMZNaGXtazIUToOa7urUwNCXS7ytXwZKxJCXf0YrHdjkJGWQyJ0frdntOiclNjWTbX/lNd2e0222cBktWWziz7ImpeX63IORl9KGWVk7t5ZPdxCXs6dyOfw4+YTOxLL9a5DOylsxZaxcnMzs1NP2Z2qLcp3C0PRWmFhw32baMOeZE6DpZ6REd2Klami4QciVp4KuxZyFHmXakhuVfwMrnj8uLqrLx6tEl8EJ+bwT0xAiOjLtQ0xk/gYJfZ9vsOhcn9pRsEJ3JT7HRrJ3dU/kXmH1m2LF9ykOzv3zkZ+JfDKXtXnWufyFmzdqx2QJKVjTkZ/RhwIavc7sREqpLFgxIETEiQ3Q37L0VFuMtgGyJz0suOyfhWXBZ0oseIkNre1VUzPKbZ8CRtrKS8RkVm0xyKl6GvKGmVI7Gsyfyb4mW+ozpOr7G9qkszCfJRslMMdAi7EVMV1ym4WTa9nQrFtRj4bWPf0Wu9iu7EK5DG4IRGQ4mI9zWP2XLRbjI4ZYW20tjss9HvzZ/RiUXFd2Ka9ZT2w7ax3uRrNpy0S87WmDWAtl2LYjLQs6JMPidBuXqr+xP0mddvTa8dmXrXE5uVjSH3mDEl/3rVb+JDZK5Pp/V73sLvC2132k57Y31HM6SO9it7SyqdEcrH0MlZ9lTtrRMSRk5icfsy8J0RbkQssk/GxcR2Nqp7Tp/IVHhSdu/wBPEZA/eORv4kZ7bqxvHurks8FORS0+UTBy2LQlIUaBMyv3eHk1xondSnt/4E3KJycwuTvBOy4c3aMvHttnSs/Kosw3th1xv4Hra1eVvA/A6xcnDkoT37NnKj1/5TwPyn29aWGeF2lnR8d2tFqed02zLbllzGmv3YTKM2m3jZaHttvMbjt2kvFx27SXnoSOzBkrCW041tZSHFc9m032peegMIYcpghYUTRUq6Yyn3nOLTT6n7r2+3/geeLNth1le79vYZ20sP5u1bGycRrkfsqntuOXfjbca3xYXPo+/TXH/wC8vIdqWpFiYjJrGfstiIq3Y5hWw3vSrWOcn9SG0YP2Kk1aKzcFFjSif+exMaHxJ7Dfb/jnDs02er6ZciluPtXAWy0iT8y1zOkiqv1e3Udnhpleh9fu+0+Z2DnpGz2CkXMIDldLbbV+reetuQblwTDPpTcF/ZERf5nyW/HKZc2O3H17O+5pNb2ziQs8a0utUvKkmUZtNvODJp27tXtmfmOqfwqahjrv8z/E3u1ob4nQa53dSpr77FSH02q3vew58/Z29PlJz6tbfa0aHExHzk21+y5FRbgh49o+/nZpneqgtqyMzEtrHZLxXM2msVUvNhh2fAje7iMf3XIpnj+qO36p8vCPpG4MzeCS/wBFMRv+Ev8A+44ykeXX7I02v/3f+89Q+nFLxZFYWbw3xcr0MRqrjdms8z4FWlI2f99gZ33Uxj7Pov0PK67f5X08NYS0bWd9kwq9kRP85j7Re61feT0ynbU2S2pKWkvu0WHG/duR34GsVPW1vIy3eb3XGdTu9N4iPOJ/eEvFmIbpX37Vg/vExfxCqa0NowzsRVMvpl2hcSv19n9JhaprQeqa0JrKpbOjzdle7moq9k3/ANzqMng1N4TWAycmral4c4/owYkdqPd2Iq1OQ1TWhsNlYWR4a2Zjo5uJ0sb2Yvacu7Hblx5dUrocLknlbQwfzKNPx2WhvD1VEvNGwo5PJvB5mO+KsJm0/wBiXmxxOVu3IMPHiSsFjNpyUS8z0jhlZ1q2LiWw1kV+y5UrcZ68d2P+SocksyIyX965sLvrT8Rras+BJfdojI37tyO/AvbTsTOPctWL3Er+Bi3vbDdivcjXalWinRiLDJv2XXGQm4b7F+xrm9qCVTWhkcKVz37v/T/uvrfgaCzx27SXlkr2t+1yJ2qSUNtwdwNZa8HKvauS6yn1bymQXBKZnnRMSyZlIT9lrvbcdd5FeW3CNcMElLTwhjx7P3RZBVdw0ON4LR4VkW99SIziQ6zgvhJYdi2iyEkjSYf0Z5U+o7sd9inndVeJHPu9nY3+knJ4RYNxY2DlnvlIMl7mJbLcZruxW/abNgzy2yM5gzpLDFsWbj7MrKK9bkQ5rye8mkPDeyIk3ZbFbJQ/eSjEq5naifYcbwqtS2MHJnRkV0SBC1xEVqfxOPDVNriz9nauUmy8FcOImJY83J2U/ZfGYxblU45hpgPatj/6ybFjdrFNaXC6M22sdaozaX7Lzpcjy1YR2rBytsStmRYW257cW87MNHk/yzjkyR4SuxcozG1YyVMpaVqxLV94ip2nozlEwGwItTBJ9sYPJKxcTpOlojXo3top50SxrQdLZwkjMrL9akF2JfSh0YrRufKLg/IzMhpiFMQYv9pj0VL0NGgyMzM+6l4sXuMVfwMnbc9MMsvRjoURsHWrVoJgnbSy3vnJC760/E1izEp9b7Pb2HU8ErLsrlLZIPtWbjwW2f7t0stUXsoaVhLYS2HBhxcRzIUVuOx6pRr260X9Kf1mf5EcNLNsPCHPsJUhwrO3aC5K3Gey843gf//Z;" parent="1" vertex="1">
          <mxGeometry x="490" y="20" width="400" height="400" as="geometry" />
        </mxCell>
        <mxCell id="AnJha9FKsQBkjCKTBRiP-5" value="" style="shape=image;verticalLabelPosition=bottom;labelBackgroundColor=default;verticalAlign=top;aspect=fixed;imageAspect=0;image=data:image/jpeg,/9j/4AAQSkZJRgABAQAAAQABAAD/4gHYSUNDX1BST0ZJTEUAAQEAAAHIAAAAAAQwAABtbnRyUkdCIFhZWiAH4AABAAEAAAAAAABhY3NwAAAAAAAAAAAAAAAAAAAAAAAAAAAAAAAAAAAAAQAA9tYAAQAAAADTLQAAAAAAAAAAAAAAAAAAAAAAAAAAAAAAAAAAAAAAAAAAAAAAAAAAAAAAAAAAAAAAAAAAAAlkZXNjAAAA8AAAACRyWFlaAAABFAAAABRnWFlaAAABKAAAABRiWFlaAAABPAAAABR3dHB0AAABUAAAABRyVFJDAAABZAAAAChnVFJDAAABZAAAAChiVFJDAAABZAAAAChjcHJ0AAABjAAAADxtbHVjAAAAAAAAAAEAAAAMZW5VUwAAAAgAAAAcAHMAUgBHAEJYWVogAAAAAAAAb6IAADj1AAADkFhZWiAAAAAAAABimQAAt4UAABjaWFlaIAAAAAAAACSgAAAPhAAAts9YWVogAAAAAAAA9tYAAQAAAADTLXBhcmEAAAAAAAQAAAACZmYAAPKnAAANWQAAE9AAAApbAAAAAAAAAABtbHVjAAAAAAAAAAEAAAAMZW5VUwAAACAAAAAcAEcAbwBvAGcAbABlACAASQBuAGMALgAgADIAMAAxADb/2wBDAAMCAgMCAgMDAwMEAwMEBQgFBQQEBQoHBwYIDAoMDAsKCwsNDhIQDQ4RDgsLEBYQERMUFRUVDA8XGBYUGBIUFRT/2wBDAQMEBAUEBQkFBQkUDQsNFBQUFBQUFBQUFBQUFBQUFBQUFBQUFBQUFBQUFBQUFBQUFBQUFBQUFBQUFBQUFBQUFBT/wAARCAGQAZADASIAAhEBAxEB/8QAHQAAAgEFAQEAAAAAAAAAAAAAAAIBAwQFBgcICf/EAFsQAAECAwIJCAUIBAcPAwUAAAABAgMEEQWRBhITFBVRUlSSBxYyU3Fyk9EXITEzVQgYIlaUobHTNFdzwSM1QWFlgZUZJCVCRWJjZHSCoqPD0uGzwuMJNkSEsv/EABsBAQADAQEBAQAAAAAAAAAAAAABAgMEBQYH/8QALhEBAQACAgEDAwMDBAMBAAAAAAECAwQRMQUhURITQRRSkQYyYRUiM4FDU3HR/9oADAMBAAIRAxEAPwD2WMLQY8x6BQCgUAKDBUALrQrt/g+InmNoV2/wfETzLao1U1oBX0K7f4PiJ5ltUaqa0KQC0GAAAUYWgDC0GABaGUzGX62HxIY0eoF9mUt10PjQbM5Xr4fGhjBaFoMjmMv1sPiQx1BgFCj0EoValRSoMAFoAAAULQvdFWVvca8tBaFRk82sD/WeFRs3wf1zNymMqKBXxk1oUKANUC5x27SXjZzY+xOcClkAF9nFj9XOcCkZzY+xOcClpUUBqlIcSgBQKDkVAoUKtBaLqUqVIoWpFU1oRRdSi4q6lEGTz+T3ZeEbSMlu63GNqmtCKEjJ6XTcpX7g0um5Sv3GJoupQAugCpNAIAAqAtBgAAAAAAAKgAATQCAAAACaEAAATQCAJoQAATQKAQAAAATQgAAAAAAAFoA9BAAACgAAUCgAAUCgAAAACD0EoA1RaAPQCKhUWgVApUXUpVqFBAHqUhqi0AuKFWogAAtBgAAAnFXUoEAPkYmw64jJv2XXAKLQnHbtJeSBNBgqACE0Cg1QCogABNBgqLlGbTbwGqLQbJP2HXDZN+y64BahUp4ya0JACaBQYAqIAAAAAATQgqYq6lAipSoTjt2kvHyb9l1wFOgw2I7ZW4WoABVzWN1MThUpVTWgABGMmtAx27SXgQAUABqikVJAShVqKAAUqLqUqVCoElKhe6Omt2jeGomjpvdY3hqBZ4q6lGoupS80fNbtG8NSnkInVv4VIqYgAAlAAAACvjJrQoE0LQZLOrG2JvgUpZxY/VznApZUGFRV/n8nuy8JjRxCpE0GAAkVEJoFF1KAUIHFoBBkM/k92dwlhQaoGRzqzvhTfHDOrO+FN8cxlAoEVk9ISW7LcYscWgIaoC0GCS0IHFoBBNAoNUBC5x27SXlsLQDLc6Y3w+XuQTT1odTK3oY4ALrHbtJeWdF1KPQaoFbSsTZW4vectpb1L+AhiRaAZbnHae8y/gILzjtTeJfwDGgAVFCgUAWi6lGGFAAAAEoA4lALvOp3em8RGdTu9N4igJQC4zqd3pvEUdJRdh1ylOgwFUAJoBAAAAOLQaoAAVAAFoNUACoC0GABxKjVAUACoAIPUWgDAAVAAAAAACoAAAACDiAAE0IAAJoQA4g9RAAAAAAAAAqAtAGqKFAAAAAAAIqBJFSRKAFAGqKBWoMLjt2kvDHbtJeBAEYya0Hyb9l1wEi0KmI7ZW4MR2ytwFOgxFU1oPk37LrgKdBiMZNaE1AAIqmtCpkYmw64CiOGRibDrhsk/YdcAotCpk37Lrh80j9TE4FAoUGKuaR+picChmsfqYnCpFFIWhXzWP1MThUqaNm91j+GvkILaoFbRs3usfw18htHTW7RvDUkW4tC60dNbtG8NQ0dNbtG8NQLegULrR81u0bw1DMJrdo3AoFrQXFXUpeZhM7vF4FHzCa3aNwKRRZ0XUpRyjNpt5kcxmd3i8CkaIYQLXFXUpGSfsOuMho+a3aN4alTmrO9cpMGKyb9l1wZN+y64vNAxd9h8aE6Ai75D40FFnkn7DriMR2ytxkOb0be2caFvoV+/wALxE8xBb5N+y64nJP2HXFzoZ2/wfETzG0OvxCD4ieYotMk/YdcGSfsOuLvQ6/EIPiJ5hodfiEHxU8yBaZJ+w64pUMhodfiEHxU8yvzXgfFZXxm+YGIoRVNaGY5rwPisr4zfMp5nLddD40AxdU1oKZbM5brofGg2aSvXwuNAMPlofWNvHoupTMZOD8VZ4KEZpZnxqY8BQMLQfIxNh1xkszs34zM+ApS0XZO9xryYLnnVG3CXuQOdUbcJe5DA51A66HxIUdLSO+y/it8yBs3OuLuMt9xR5wT/VyvEhq78I7Jh9O1JJvemGJ+8uc/ld5g8aEwZ/T8/wBVK8SBp+f6qV4kMHn0tvELjQpaas/f5bxm+Yo2fnVP77K+Egmn5/qpXiQ0/nnZuqHxIWHpTsvrIPGhA3/nVP77K+EhV52T2+ynhIaD6QLF6+X8RvmHpAsXr5fxG+YTG+86bQ3yV8FCjzmX4n/yTmfpWsnrYHiN8y/5+WR1kDxGkVLeedTfirfCQjnW34s3wkOOekmS2W3oR6RpTq0K9Dr/ADwhfGYfhoPzjhdfD40OP8+rI24PGgekyQ1M4kHSXYWYQMidCKx3dcikadTbbeaJZOHtkQ+nEgN70REMV6VrJ62B4jfMtFa6hp1Ntt5Vzyc3tvEho/pBsXr5bxW+YelOy9uDxoShuekZnfYfiILpCZ32Hxoazz0sz/R8SFH0g2J18t4rfMDa9JTG/QvEQfPJze2caHKvS5Y28S3it8zL+lmyOvl/Fb5hMb7ns3vbONCcvP7wl5yX02WZ1sDxE8yl6e5P/R8SBLrOeTm9s40Kueze9s40OQ+nCyuvl/Fb5h6d7G3qV8ZvmRR1zLT+8feWr7cSH03tb3loco+cNZvXS/it8zGWty4WVE6EeXf3YrV/eRB13nTLddNXKPzjhbc5wuOIemiz9qFxoWnppkfikn9oZ5lh3rnAzrWcSFXTibbbzgfpvsvrpfxG+ZlPTXZvWQeNAO66XcScg9PNi75KeM3zLX5xtkb1K+M3zA7NQjGTWhx35xFl7xLeK3zLL5xtkb1K+M3zB27gIv0fb6u05D6fZLXC40MnYvLxYk7+kzkpB/aR2t/FQiul1FIa5H9FUd2esmgQAoAxMC0KL40OH04jW95aFwYO2WO2VuFGWY5InQVHd31lQtLGQuxACDiEjlPzScPfr7ZvgPK3zQcOv1nWd9icegefkLdX8IvPuFur+EtFHAbU+R1hXH6GHkB3ZQPmeYXfrVg/YI35p37n3C3V/CHPuFur+EkcH+Z9hb+taD9hjfnF180/Cf8AWhMfZn/mnbufUPdX8Khz7hbq/hC0cE+YpP8A6x53hUq/MPX9YM/wP/OO4874v84c7o384K4R8xaH+sOauD5i0P8AWHNXHeOelpdVK3oHPS0uqlb0Crg/zH5H68TvhqV/mO2H9f7W8JTuPPS0uqlb0F56Wn1MrehWorjPzIcHfrjbf2d/kVfmO2X+sDCTiadd52x9Tg52x9ThCOT/ADKrB+uuE3/CJ8ybB766YSXQ/wAk6zzsj6nBzsj6nFlnJfmQYN/WfCH7RC/KLj5jmBX1hwh8eF+UdS52R9ThedcfZcBzX5i/J79ZcKvGh/kjfMZ5PPrNhV48P8k6Vztj6nCc7I+pwR05x8yTk9+LYVfbYf5RU+Y/yYb/AIUfbIf5R0PnZH1ODnZH1OB00P5lXJv1eE32tCt8ynkw6m2PEebnzhtHeU4hecFpbx/xAah8zPku+rs/9rUf5mfJd9XZ/wC1qbZzhtHeU4g5w2jvKcQS1j5nfJl8DtP+1Jr8wq/NI5J/qzan9pTX5hsXOG0d5TiF0/aW8feBgvmkck/1atT+0pr8wr/NO5L/AKox/tj/AM4yvOC0t4/4hdP2lvH3hDH/ADTuS36pv+1/+Sv82Dkx+osH7T/5K+nrT69bw09afXreDpbfNb5Kf1f2d4jx/m3cl36vbP44hW09aW8feJp60+vW8JHzd+TH6mSXhRCr6BuTj6mWJwuKGnbT69byc6nd6bxFaLn0Bcmv1IsP7LD/AO4PQbyWfq+sX7Gz/uKGdzm9N4hc6nd6bxEIXnoV5N/qLYX2SD+WN6BOTH6k4P8A2aD/ANhjs6nd6bxC5zPbynEFou7btCStH9Bl1le1KGOqLQKBIoNUBaEUNUx9rQ3xOg1zu6lS+oAgoWS1YfTRW971FcAJAJQcipFFSgYq6lLrR81u0bw1KmYTO7xeBSRj8du0l4Y7dpLzLaAd1b+ENAO6t/CBi8du0l4uO3aS8zGgXdW64TRDQMVjt2kvK2TfsuuLzQ7Rub0fe2cSEUWOSfsOuDJP2HXGQ5vRt7ZxoJoV+/wvETzIFnkYmw64jJP2HXF/oZ2/wfETzE0OvxCD4ieYFnk37LricjE2HXFzoZ2/wfETzKmh1+IQfFTzAssjE2HXEZJ+w64vtEf0jA8VPMTRH9IwPFTzAtMk/YdcTkYmw64u1sZyQ8dZ+CjNrKJS+pOiU+IwPFTzAsMjE2HXCF46RhM6Vqyre2O1P3l0zBeBE6Fqyru7Gav7yOxiQqmtDMrJyzfbGhp2vQo5nK9fD40ImePyMZlofWNvDLQ+sbeZ3IQ/ibfBFycH4qzwUL0YHLQ+sbePVNaGZyML4o3wSlmMv1sPiQnqwYjLw+sZxIVqGUyML4m3wSc0s34zMeApFGIoupRsjE6t1xlc0s34zMeApS0VZW9xrxBZZCJ1b+FQyETq38KmS0bZG+Rrw0bZG+RrxRisjE6t1xOQidW/hUv9FWVvca8bRlk73GvIGLoQZjN8H9czcoub4P65nhUDFUChl8hg9rmLlDN8H9czcpFGHHyT9h1xk83wf1zNylLObH2JzgUQWOSfsOuEqmtDIZ1Y2xOcClbSMju63EjE1TWg+RibDrjJ6Rkd3W4M7s74U3xwMXk37Lrhck/YdcZLOrP+FN8cM6s/4U3xwMVVNaBUy+kZHd1uG0lI9R9wGGqmtCjnELrWcSGd0jI7utwaYTc5X7gLPOp3em8QZ1O703iLcmi6lLCvnU7vTeInOZ7eU4i3oMA+cT28pxD6Ui7K3FGgAV9Jxdl1xGlIuytxTqLQCtpSLsrcPjt2kvLagUAr4ya0KVU1oLQWi6lAqVCooUAKiE0XUoUXUWs613OeYOX8rvKRHwQsnIQlpG6uv0rvaeW7N5ccP7Zms2s9shPTHUy0CJEfc2qnTPlLWpE097F6OP7P8XX2HkmBbdqJamk2Rls+Lqllov3H2XE4PE1cTHfy8bbn4/HhTJ6Xwf5UOVmUx85wZtGexOlk5GK7F7aN9RsEl8p+0rPg5WasyaloW3GguY29UOO8meGGE0461GzOEdqQXP6KRJuG1XdlV9Ztdm8rOEuF8Z8hFteZWWZ0n5tDxW9q09RzcfgcPncmcfjY2d+e1O+nXLK+VTgrFdSeixJVdUd2J+JucDl5sSa9zOSkb9nGa78FPNFu4VLgvg5kX2JZtpwtytXFjJ4rDWJblfwMwejZJ+AWRi7D5vFdcqnN6j6Jo9N3/aznnwmWPeK4WyjfbOS6dsVvmZSBaErNJWDMwYyf6OIjvwPnPgxhBak3ExMG7WmbOfsxlWMtx3rkUwiw0lFys1FgTth9QxyOmeFPWbZ/07yZqm3Xe5fhPc+XqrGTWgVLaE9seXZHhuSJAe3HbEYtWubrRfYqfzlc+W+jbrzuO38Lw1RQChKQNUUACoVFoupQoBUqKFQAKgLQaoCD1EJoBA9RCaAQBNCACoVFoFAGqAtBqgKAUAAEoOAD0KlRQAKBQapIAJQaoVAWg5FQqBIEVCoEgAAIOJQcAEGqKT31PqRXlH5TsrGlrcrGhPhJmOJ9Nqp9LV6/5Tye+z5qGlXS0Zqa1hqh9KOUrk5l+UXB/MZmiWjvK+y84lYfJbyo8n7tGWdJylpSGuWmILJXgf8ASPvOPs43qHExw5GfWWPj/tnk8+YIQnswW0q5jmxP50obDybwIsLSmPDezH6OM1UxuzWdniYOS8Sy9GTuAdq2bB16GSeT/lVOfzsayrM/ie0JSJ+0jts//wBVUO70PTjwuZ9e/r6fx1XLtlvTVeUhFiWLiM+m/Zb61uMVPfJ3th0HSFm2/ZM1M9XHmmY11TfsJME7etT9DhwJv9h9P8DzilhYQ4PQ8e1JW0rMZtTj3wkvdQ4f6n5ePN3WacfCmEreuRv/AO4MX/G1fynTpq07ZkP4jdEb+zRV/A1LkjsJZSDn8djoMz1cRMV1ym0tnZmWi5KTgxJiLsQWq51yH6N6DZq4GE2Xr2vn2Z7Zbli9e8l1qRbS5PrIixWq2Fo/3jko282yhicF7GSxcEbLslEo1kjiORU6LtS6lMyfhnqNl5OfXzXqY/2wlBwIqedFi0Cg1SSQCUGqFQKdBgCoALQYAFoMFQqAg4g9QAQeogAAARQC0GCogBRqikgAAIoqgAUJANUUAChOKupRipVNaAU8jE2HXBkYmw64vdFWVvca8NFWVvca8CyyMTq3XCGT0XZO9xrzGAOAAAEVCooBQBqlOHEbFh47HI9m01apeE9U1SMR2ytxRfMwYfTisb3nIhW0nJ73A8RvmEX28qBZ2jY1mWt7yy7NTtlk8jP84rH2oPGgvOKx9qDxoa4bNuv/AI6T38ObzHIhgXaHRs+Xsn/ZspA/9KpFvcjsvb1i6GtO1JuasvrkyaxrvadI09ZWqHxIWuO3aS86dfJ5WOX1fV4Vylnl5uifJht2z/0HCVts/wC1wsh+NDqWCeAeawsjO2XBsSFuUqzLt8VPM3xsRj+i5Hdil4xyROgqO7vrPW2+t79mua9l7UlnkmKupRalxVNaFqfO5X6srl8tJ8mqLQByqSUKrIb4nQa53dSopfWS9sPpuRveWgGKziF1jOJAzmD1rOJDYNLpuUr9xS0t/qUr9wRWHxk1oRRdSmY50xvh8vchi6gijnMHrWcSD4ya0MxpdNylfuI50xvh8vchaJYLOIXWs4kK2I7ZW4zGl03KV+4x+MmtBRagTQgqACaEAAAAAKMKBVzSP1MTgUfRs3usfw18irpWJqW4jO5zem8QEaHn9ymfCd5FCJLRoPvIT2d5qoPpy1OuW8iHakW0fftczvJQCBqi1AACgDVAKkiUGqBJFQqKA1RaANUAqSJQaoCgAARVNaHMuWPlcluT2w8WVho5dTTpNDzpy4WQy3sJ9GNpEha2+tDLOyeXrem8LPn75pxvU/Lk1s/Kwwr3FvCYNnykcMInQSC/urUa2cB1ymJkn4+zirW42SwMFbRmYmJBiQYr/X9FktVfV7fUifyE4y33jt3cL07j7stWG/K2efbuNf8ATDh/jYuNDxtX8pWgcqHKTMw2PgwHRWP6LmMVyO7FRPWd6XkEcmCT7YW10TE6Tsh6m9q/yHPuUrk4mOTywbLzVUXE6WLLwfo9v0vUX+m/DG48HX/5Mv4//Gopyqco7vZBVexil8zl1w6iQ8dlho5m02IqpeX9tYPRpJr3S02yM1nSWG9HI3tp7C8saw15vY+I7ExsTGp6sbV2/wAxx8jblp69nselen8D1TkTRlneq2jA/wCUXOzP6ZZ0zL/toTm/ih6YsGbgR4GXhxocSD1jHorbzx/ohh37kTtSLauAn8I1U+krPWn+MntTtQrx9/3e/wDD1f6g/pfjem6rOPbY6ZUpDVFO6PzXGfThMPgDVFAkNUq1TWhQGqA9U1oJUWgAAAAAAAABUBaAMLQaoVAKiE0IAAAAAWgwVAKihQAAAAB6DAAAABQBxBqigAUCg4CUAaotAHEoNUKgKAUCgC0XUpwXDWWjMw6q6E9E1q1Tv1TQeUPk/mcK4OkJKOkvM7CrR1xhyNX3NWV+H0PoPK1cXnY5bPzLJ/28/WvAiPt36MN69jVMzycPbCt36bkZ+k9Jae32Xi4Y4N4dz9tY8exo+JtSMu96XohmcE8FsJsHrax5LBOeezam0l2peqlePycsdUx68OvmeiZat2X0bJ1b35n5bxhi+0rWwRtSybPjLAa/op7MbsNAwtwNtTB2wv8ADdpw7U7kRHnStK4VfBp3wJfzLSd5zYT2NiTVjzkN+y+DLItyqdH6rL4cN9Jz/wDZP5jzpkI/OC2JPPYeZt9sbHTET+v2G/2S1YeBbID0VsZ89jthuSjnN1on8qfzl56Gnfwf96YQ/wB+++/veH9Dt/h/UZD0d4S/4L/wIz6HS/hej26jk5GzLbj4ev6TwMuPy8M890xn/wBafERYPvExO96jtHIG2mAavVKNz6ZdX+TFX2L2LrNGhckWFdoLWNkYa/5/qO6YN4Ly2CllaMgPY6DratUPN4WOUyz7j7D+rvVuN+hmrj5/VfyyQAFD2cH43nfqz+r5kAUCg1TVBQAKANUUAAAoFBqgKAUJoupQIAKAAgAADiD1EAAAKgAowtAGFJx27SXk5J+w64BQGyMTYdcU4b2xvduR/dWpFFcAAkA1RQAACgATjt2kvEzqB10PiQy2kZLd1uJ0t/qUr9wGFzqD10PiQuDJaW/1KV+4xlQFAAAaoVFAAoA4gATiO2VuIqXWMmtALWpWzOP1ETgUyXOW0t6l/AQt9LvLQYyo9DLc47T3mX8BDGChBaDBQqAcSg1QCooBQAHoupRCvjJrQCdHTe6xvDUNHTe6xvDUfOp3em8RGdTu9N4gJ0dNbtG8NS0LrOp3em8RagXWYTW7RuBRswmd3i8ClHOZ7eU4gzme3lOIIqpmEzu8XgUtaD5xPbynERUtCKQAAqQBNCCoBaDAAVCotAAvsxl+th8SEaHX4hB8VPMsqBQDIaI/pGB4qeZTiSMvZ3uIsN/dcilmRUCsAVCoAAAA1RaANUBRxKDVAkSg1QqAtAGqKABQBwIqKAALRdSlSoVFAKANVNaCgNUKigADiDVAkSg1QqAtBqhUUACgDVAKigAAAAAAAVAAqFRAJoFBqhUAqIAATQgeogAKNUUBgqFRQASg5FQHJoFBgAAAAoA4gDVFAAAAoFAAAoFAAapFF1KGKupQIoA9BcVdSgQFBcdu0l5WxV1KBRoMLjt2kvJx27SXgSBGO3aS8Mdu0l4EgRjt2kvHyb9l1wC0Aq5N+y64TJP2HXAKFBsk/YdcPkn7DrgKQD5GJsOuDIxNh1wCAPkYmw64MjE2HXAIA+RidW64o5aHttvAcQaqa0FqAAFQqmtAABMtD6xt5UoupQIAKprQmgEATQbIxNh1wFKgFXIxNh1xSAAoFCpk37LrgKYhVyT9h1xRqmtAL7NY/UxOFQzWP1MThUraWfqUNKxNS3AUc0j9TE4FDNI/UxOBS40u8NLvLQUc1jdTE4VJ0dN7rG8NR9KxNS3EZ1O703iJRUaNm91j+GvkRo6b3WN4alTPJze28SC51O703iBE6Omt2jeGoaOmt2jeGpGdTu9N4gzqd3pvERSp0dNbtG8NSMwmt2jcChnU7vTeIp5xPbynEIhX0fNbtG8NRswmd3i8ClLOp3em8QudTu9N4iUxVzCa3aNwKNmEzu8XgUoZzPbynEGdTu9N4glc6HaJkYnVuuKWlYmytwuk4uy64C60Q0bRDCy0pF2VuDSkXZW4C90SzWgmj4HWM4kLPSUXYdco+MmtALnR8DrGcSFPQrt/g+InmUsZNaC1TWgRVzodfiEHxE8w0OvxCD4ieZZ1CoQvNDr8Qg+InmNoj+kYHip5ljUWgGQ0R/SMDxU8w0R/SMDxU8zHgExkNEf0jA8VPMNE/wBIwPFTzMeIRUsron+kYHip5lxoSzt7l/ETzMLUQqMtmcr18PjQMzluuh8aGJHqBk8zlevh8aCZnK9fD40MYLRdSgZvJwfijPBIzSzPjUx4CmHADKZnLddD40JzSzfjMx4CmKADK5pZvxmY8BSloyyd7jXmPqLQtBktGWTvca8fN8H9czcpiqAKMvkMHtcxcpQzqxtic4FMeBUZDOrG2JzgUfSMlu63GLqFQHHEHqAtAoNUAAKhUWgBQagDVTWgCgAAA1RQqAAAAOJUapToA1RylQqVTWgCgAAOINUUAAAAAAAAcQaqa0AUAqAAIPUQAAAAAAAAcQaqa0AUAqFQAAqFQFGFGqACjVFAAAioC0AaooFUCaBRdSgQPUWi6lCi6lAKDVJoupRMVdSgNUQnFXUpOI7ZW4CahUp47dpLwx27SXgVBCcdu0l4uO3aS8CpUCMm/ZdcPiO2VuAUKjZN+y64XJP2HXAFRaDZJ+w64bJP2HXALUKhkYmw64MjE2HXDsFQqGRibDrgyMTq3XDsFQqGRidW64Sonv4D1CogVJ6oeogVIRyO9iovYR4Ej1KeO3aS8lipE6Co7u+sdwTQgeotB5EALloe228ehPQgKk0B0GIzpMc3tQgU0jw3eyIxexyA9cn0/o971GuYUYd2Tg/ExHvgwn7L3oi3Kc7tb5QtmxOhGgP7sRq/vCY7Mr2t9rkTtUMdu0l5xbB7l7lLX6eJxIdYZaErE6EzBd3YiKEsmAsKIyP7tzYncWowKAJxHbK3BiO2VuItk8q+EEVGxHbK3FKqa0H1T5D1FGyT9h1wZJ+w64dy+ApFU1oPkn7DrinkYnVuuJ7GQzKY6iLwKVdHTe6xvDUv1wijN9spZ6dtqL+SUdLWhqs3+1l/JOSbdf7p/LTqrbR03usbw1DRs3usfw18itpyd27K/tf/AOEqaantqy/7X/8AhJ+7r/dP5OqoaNm91j+GvkU81j9TE4VLt+EE1D6cWyW962Kf9EbnXO/FrM/tF/kPu6/3T+TqrLNY/UxOFSchE6t/Cpe86Z/4rZv9oP8AIbnhE62z/GZ5lpt1/un8nVW+gHdW/hDm+/qn8Klxzih9dD4kKnOBnWs4kF26/wB0/k6qhzbjdRF4FKOgXdW64qc45LrrM8N43OSB8SkfsUQr93X+6fydX4W/Nma3hLyObczvLeIbnTK/FbP+xvI53S3xeQ+yRvzh93X+6fyfTfg3NuY3pvEHNuY3pvETzpg/FJL7HG/NDnTB+KSX2ON+aT93D90/k6vwXm5Mb03iK/NSd61Slzjb8RlPsUf80XSMx8YkfscQrduv90/k6vwqc2ZneEvDm1M7y3iKWnpn4/D8NCNNzXx1nhoR93D90/k6sPoGLvsPjQq825jem8RS5zL8T/5JR5wynxiZ+zqRdmHzFbevK65vR97ZxIVNENLDT8D4ra32aW8yhp6W+KWn9lk/yyLycdXincZjRDASwld7GOXsQxOmYPxG1fskp+WafhdyxWbgtEycxhDOSr9mNDkmLcsMTm9+Eyx0KNZUOW965IXfWn4mnYS4QWXYf+UpNvbHYn7zj2F/yp8FonQwotZ3dfAX/pHlnCjl5dbXtnLWd2R2F8d33fK3b3/zmsf4tI/aWeZf4N2vIz8TElp2XmH7MKK1y3Ip82vTlG3i2PGYbDgF8pGJYNtY7p21obNp0wxEvLU7fTJ1ksZ0lxe31FTQzdSnmDAP5X+COEn6ZO23B/azDG/idvgYeSc17m0bSjfs5mG78DLLf9kblzRg/wAxGhP811xrTcLIT+jNTruyPH/7RdJSOzM/2hH8jH9dL4qK2Z1jIzpIre05Th9hdYdiRMTS2I/ZWKiLdU0bD/5SNiWHHyC5Rkbq3WnFR11DyHh7yz2bb1tY7ZSaiM2mz0dUvob6933fKl9vLoWHs2y3rax22nGiM2muql5zHmxL/EY95rPOxu6M+0p5lLnxJ/CU8c6cayysbdZtnw7K93aMdexTqdk8rMOH0482zvIqHnTnvKfCU8cqc+ZL4U37R/5JyWwsfQzky5TMH5/9ImIsLvup+J3KVkIE9Dx5aIyYZtQnI5L0PkTZvKpMWT7uQr2TB7i+Sph/CwzsXEfI2e9+yjnqt1Ti37vs9OnD38PUOioetLydGwdtt6GpvSzYfTlbMb3oj0/eRnuD3wmy/BZ/3HHPUNOP/I6sePdnmNtfZ0GH04jW95yIRoSzd7l/ETzOd2tadmROhg/JP7JVq/8AuMA/lKiw+nY1mM71nNT/ANxH+o8W/hrjw3Z0syE6Jk0e1X7KKlbi3pZ++y/it8zzJa/KZhlLW3o6TsfBmYsXeoNkOdE+5x0aHhxaEb3cOUf3XIpS+rcbV4i/6J1HOLJ+JSnjs8xFn7Fb7bVkU7ZlnmcmZygWnE6E3LO7sFFNhsHDSNaPvlgM78vQr/rmj4Uy4UYTBrlNs63Ord2ORTZEisWJiI9qv2a+u4+cGDHLvN2L7HYvap2Hkk+UXaGFlvfw2MnaeFyOPdWXtPLPXY9VYjtlbitlofWNvMLDtxI3u3tf3VqM2PDf0YjXdjkOXqxbL38K1rfwnQ+l3fWWlS6V7W+1UTtUsqprQrfbyjGLrHbtJeV6GNxV1KZXFXUpMsX6ZbHbtJeXuI7ZW4w+UZtNvHS2XO9iovYUysWkqyxHbK3F4+NDh9N7W95aCxHtg+8cjO8tDH2sixOgiu7vrKyxfGVRyrNtt5a5Rm028t8du0l5b5Rm028tLFrK2HLw+sZxIOYDOoPXQ+JDPQ3JG92qP7vrLyz5Uyxy+GVx27SXmRqmtDXc6gddD4kF0yutDPOz2Thjl8Lp6ZPp/R73qLmi6lLK2Z2X3iFxoWEa3UlvevbC760/EYe/hhyJZ12zeWh9Y28pGJZOQInQjw3d16KZBk5AiRMmyPDe/Za9FW46sJXj8j8L2qa0LfGTWgzXtfDx2qjmbSL6ryzy0Nf8dt5tI5sVrN4VytnxMSam4Es/ZjREYtyqeHOXHlMiW5bWUSI17NprqpeZ/wCUJhla9l21jw4zlZtJ60vPOtpW3pX3jkTtU9ThS/7m2NVbWtZ8ToIru76yzyjNpt5SziF1jOJCzy0PbbeexhK07i9y0PrG3lrlGbTbyzx27SXiY7dpLzVW1slm24lle7ei9inqDkf5dIdi/wAZzsCL3orfM8d47dpLzJWTbSw+m5G95aGO3T93H3b6rPd9K8AOW6y7eiYjY0CI/ZbEaq3VOjRJ6WhQ8d8xCYzac9ES8+cvIPhdGgW9/CVh971Hpblv5QZvBqwf70a6L+zSv4HzGfGy1bPaNrY4T8pZUk8NMvK/w8HrIf0m3ocSyrNtt5kcI8KJzCv389Db3oiIa3loe228+i48sx93Dyb4ZFYjGo9Ve1EZ0lVej26i3x27SXm1YO2FZ1r4C2pEfNQOdb+imUbkndnrNJqmtDsji7VMdu0l4uO3aS8taprQjFXUpeL42L7HbtJeegfk1cqaYCdKYhwP2j0b+J51oXES2ls73Dkf3Vqc3I0zbi6de/7WXs+pFp8rVjTPuZiXi9yK1fwUtZa3mzsPHl4jI7NqEuMl6HzrsnlGtuGkZXxXtSD7xXVTE72r+s9ycmc7Lrg/jJMQlbrx0ofFcvj3VlPby+s4++bsfPh118xCh9OKxveciGk2tFZEh47HtczaatUvM1aypE6Co7u+sxWZyuhcTLw8fZx0qcUlnl3YrCyWrD6aK3veovYllWXZ3uZqO/u+stUmYLvZFYvY5DW7Swnl7G/jCZgyP+0vSH//AFQnq3w1l6bzY1q2f1SG22Ta9nQ+nDazveo43YvKXg+72TkmvZHZ5myenHBbblfFb5lphl8OfdZ7PlzpWJqW43nksw5bg7bWUiR2QWbUR6NT7znT3JD6ao3veop1P0TZpm3p8prsvb0tE+VVPWd7mJj9x1ToWB/yrJeZ/THMl/2z0b+J4my8PrGcSFTTS7SHDu4cvS2e77Xh9NbF5e7Dnf0mdk4P7SOxv4qZf0uWNvEt4rfM+ZvOG0d5TiLvndM75N/ecl9Nm3yyvMr6Y+l2xd5lfGb5kemuzesg8aHzU53zG+zf3llzitP4vM8SlL6PithzK+lnpusvroHiN8zVsIflI2NZHQnZTx2eZ8/+d0zvk395j7SnZu1feTjE7XoWx9HxazmV9GpP5RtkW3/+XKv7IzV/eZ/06WRvMt4rfM+YlnW9aVle7mK9ii88JjfZv7xl6NGuHMr6J+next6lfGb5mW54yO/y3jN8z5waftLePvLvnHafxeZ4lMcvR8XThzK+j/pIsDe5TxmeZcemSRlP0XJx/wBk5HfgfNT0l2xvC3mKi4bWvZ3uLVmn9xVUY+j4tZzK+kXpysneJbxW+ZjvT/I7ULjQ+e/Pq0t6bxFLnB/SUxxGk9HxW/WWeXt+1vlNSMToRYLu7ERf3nKcLPlVzsz7qKkXuOr+B5nzqd3pvERjt2kvOjV6bNXfTj5G773X+Hf7J+UxbcPpzeL3n0MhZPymbbhW1jvnEazac+iXnnOpe1TWhteHHlbpb0+kmB/yi7KmLFxJyZlpd+zGitatyqcc5TPlNxpn+JZqGn7OIi/geTucdob0nEWWl3lsOHHJZY6ZhzyjR8L/AHtVNAqmtDE6aXaQv8qzbbedevTNXfSqcozabeUMtD6xt5SmIT5WHjx2Ogs2oiYqXqY3KM2m3m4y+Wh9Y28p47dpLzGZVm228q5Vm228L4slk37LriMozabeWGl3irGht9r2p2qQ1xbXgvhXMWLbWOjXIzaVPVedPwj5anYV2Lk48xDa/Zc9EW48/aUi7K3FyyPDidCI13dcilcl2Ty0PrG3g2E978RrHOfsonrMNnELrGcSHonkitNOWPB/m5hDg+2PAs79AtCHCWBEi99aFHNunhxqyLczH9HckX9mtfwKeO3aS8zeE2Csvgv+jOa/uLU1qqa0L4uLKw2MmtC7qmtDGY7dpLy+xk1oTWdVqmLxV1KZEtKprQpWmFjp+Bs3YmCOAWFE418CfnI3u4My9Md/dRfWv9RtvILy0vsaa0ZaUdkaDrV6UOIY7dCZPGTH2a+u4bAzBabwit3+Aj5j+0XF/E4+Rpm3rt6fF5E09+/l9A4fLxYsbFyc3KPxvZixmrX7zXPTpZG8y3it8zxxA5NcJY8G2Is1azbDhSv6O+efkGxO6rqV/qNH07afXrecX+m47fL2tHN8vadtcrMOS/RpuDG/ZxEd+CnAsOeVG1cL/ezSL/vHMucFpbx/xGO0u86tHp2Orv8Ayvt5vhtsTDO1rO9xHV/cWpPPe1N5TiNI0pF2VuLvOYPWs4kOv9JHJlzLfDNYb4HtwOiYiWhAtJ+zAiJEX7lMTkYnVuuN1tCz4Fr279OIziQpaOg9Y3iQ6o5deGOH+6Xy1VlkMiNxmfSbrb60IiWVDhRMm9yMfsuWi3G0WZKysthBmcWPChSfXPeiMvX1HoDkf5JsF8PrXy05HtKHC24keGjb1K5OrHDHb5ry/msbqYnCpUzeL1b+FT6QN+QjyePnWSbbatJ02/owEmoCxHdjclVTP/3PDAD4rav2iD+UUX/TYfL5e4q6lKmj5rdo3hqfUVnyAOTSJ0J21nd2NBX/AKJbr8gnAFIbHra1qox/RdnEGjuxcl6yLlJ5q+PFxv5fLrJv2XXFLNI/UxOBT6ffMd5NviNr/aIZnvmOcmfwt3jGd5OOrxV5xcfl8ooLHTHumrE7iVLjQzdSn01jfIQ5PZ39Embbk+/FY0tvmBYFfEra8ZhX9dPlP6TGvmlkYmw64fN4vVv4VPpn/c9eT34xan2mB+UXP9z45O/jNp/aYH5RM5WOzzYi6Pt+HzF0J/mrcJoT/NdcfUX+55cn3xa1ftEH8omP8hPk5ln4kabteE/ZfFgov3wS82YXxYr1Z+Hyw0A7q38IyWErvYxy9iH1NT/6e3J472Wxaa9kzA/KMFhN8hTk+sHpW5akLvzUNPxNE46pt8/h8xXyEzDiYjpeK1+yrFRbinkYmw6473hfYWBWD1tZSwJ9LQZtOiI5L6mn5rJbq7hLYq56pp/Plz3FXUpd4jtlbjbdBWfvUDxE8y3zKW66HxoXZXKfLVIUCJGh48OG6Izaa1VS8lZWM32wYidrVO+8jPJ9ghhlYuJhLHfZj9muItym4YZfJ1wehQcrg7Mxkhbcz6m3qVqJhjt815W0QwIcCJG93Dc/uoqnQ34OyUOJiPjwmv2XPRFuMTGk5Wy/dR4Tu69FI7jm3a8dfXVYO0XJati4kRUR+yvtuNQqXel3li9yQ42SeqNi7DvU64vi4M/wMZNaFTHbtJeWeMmtCaLqUmsl/jJrQyti2ZCnf0lzYP7RcX8TBj6Ui7K3ENMVbFXUpk7HsqGntVE/rLDKs223noixMD7HsnE0XCbM4/Ry/wDjdmsplZG+NjgegXdW64vLAnLQsP8Aiu15iW/3lQ6zgryRzPKE7FlYiy7tS+pS4t/kOwmsuI6HCs/Ge32tbCWqf1UMcssZ5pnlPpvu0GZs2ewh93Hy3cXG/A1+clI9nvxJqDEln7MZisX7zPz1nT2Cz8SWj479lq1U3iYfZOF2D+YxWM0jvKqlLyccsb4rwb/dXF6mXiSUxBexkSBFY9/Ra5ioruzWNo6D1jeJDoHKPKStqYPWXIxI8J9os6UzIPR6N7Vb7DS0aBjt2kvLaDJx5mJiQYESK/ZYxVW5CFhPRzGqxyOf0Up63dms2TBOZgy1tY8aKyEzae5ES9SBgMR2UyeKuPs09dxuU3hLLYM25WUlnRU1w21/A1jGTTeUqmJtfyXm/wCD+DcpKYLaVmY0Oeif6NyO/Azzaa9U2ZTtq+Hlu2nhBNaMZMZWDrYuMn3GiskJmJ0JeK7usVT0fyW8jWCGHOE0GXwgtm2JCYje6hMmYbXv7qe1f6j1fYvyA8BlhRYiWla6w4XTekeDRnauS9RXCz5fU8fjYXH2r5gZnH6iJwKY5IMRXYuI7G1U9Z9Xv7njyf8AxW1ftEH8o5Xy9/JBwB5PrAzyUm7bfOdSyKxX3e03nu6bxcb+XzzoX+ioetLzoOj7D1weJBYmDklB95GhM7zkQ0xZ3VNXhqFtY8lbWPLWjBjM2ocVHJeimKzqd3pvEWVCcdu0l5af2x85r/K+ta13xOh9Lu+s23kihWjEwgzOdiTUGT66WmFVl6eo0Cqa0M/gxhhEsX2Li9qmO11YuwcoeGlqYIydl2fCta0aM6U+k0uVb2rX1HJ/ShhV9arc+1u8yhhHhbHwq9+it7xrzGOidFqu7EqZY+zbCt5sPD3CWJ0MLLad3Zxy/vPp/wAk1vrNYP2W6etGYnGs6StVXI3t1Hy5wXsdsjBysymbwusi/Rbep2/AL5SU3YMXMHRUhy2251G3nl+oS5fT1/l26bPd9JEmoK+yKxf95Azif3hLzi3I/wAuFk4Z9KPLv7IrV/edoqeDl7eXRkoY9pdcph3pEh9Odm295FQ2XKM2m3mDtaG+J0Gud3Uqc2z36a6bJ320jS8bfJv7xY1tPlvez01C79U/Ey77EyfTa5veShrGFkjMzPupeLF7jFX8Dnr0dWU9/df53P8AxeY4lPG3ykrXwowMtpj22vajGP6LlmXIjuxf5T3FoF3VuuPG3y3Yb3rZeKxy4nSonR7dR6XB/vTus+ny4Ta2FGEMBmPJ4W2zMs2oM45yfcpr0/hlbET+MsIrcmf/ANly/vM7Y1r2dbVi6CtKG2BMb5LdDiT1Gj2tEZE6Dmu7q1Ps9f8Aa+Zy3fayvSM6nd6bxE6etLePvKeaxsnj5J+JtYq0vLU3xY57vunzie3lOIXOJ7eU4iKiVTWhNZVsGEFuu/yXaEzB7FUaxMJ7clI2YS1pxXS23OTmK29VNcxk1oGO3aS8zzlviKV2u2eSu2FtrKZ79Dar6rzWsMOSy15SDlpScSYhbcJcZt6FvYHKdNyf6VZrp3uR8b8DZLA5VJ+042j4uZtlusc9qNvOeyyqVyGL/Ae8/g+96jKWtIy8SDn7IsN0z1bXIrrjY+UKDZ/+TYGe/wCzJlPwqac+IyHGyT3I2LsOWjrjXXEMbiO2VuL98GJD6cNze8lBKmXtN7Zn3Lki9xa/gbwYrGTWhSWNDb7YjU7VQWi6lNpwawLS24OVxHPhdYiVbeKitbqdSiYcW1Z0rZkzAtSI+XZ0ozJdVY3tX2HKVc1ImIqoj9lV9dx1J9uWXDkdDvSG3/NVyItxw8j8KV3/AJLflLSFm4J6XwvtN8uu1Z1n1S9EN4g8uk1BwgwfsiSkpaNZVo9KNNUSN9/rPPVj2XY81gXo+bbDgS+3FVGtvU3XCfAK2LBkbPtZ0KPDdZ/u1dDclez1Hm7NWO3rtx7/AMOu4W2lgBhPYj7MlZmXlLWZ0oroTWq3tPLeE3J9bWC8tnMtBmHy/XMhuVl9KGtJygzeStSfxXZy/osp9J3YhuGDXL/OWbZejG2FLWlB1x46Khrp0/a76/LmjmzUx3YrfpO1J61LxLZV3sVF7D0paPI/gVb1gPnJBln2ROM6UGzp9ky9vajVVUPO+EGDMeypbOIctFWX61GLiX+w7cFo2jC3B6RtzBay7VsuYgw4jOliPT6PbqNEgyseZ91BiRe41V/Ay0WfmLNsvRkGE98HW1qqhc4ITMGH04rG95yIbyWLNdRyO9iovYdG5Mo0OesvRkw9sKDriLRPvNRwmsXQUSHDVqw4kToMclFf2J/KJZtrusr3fr7DPO943oerLE5JsHbXsu3JyzZh8G0J/wBk4kGDiy37N2NS48zcp2GVl2BMNsjAy3Ldm5yU/SrZW1HOSN2MRfWe1sF7XsexuTqLMphJJpLwveRqsxGdq1oh5X5S/lNLM2zalnWLg5ZDbFf0ZqHKtWI7sVEPN4+OX1Zezp07rq76cWdymYVsZjuwotxrdpZp9PxMU7DfCW1F/vi3LSnf9qm1/ep2nATCizsNrE0Fhbg2yfmLO/QJyHByDIvfdSho1tYL4Iyf6NMPjfs3Y34Hra/bvuO3Dl2Oe51O703iM/Bjz9qe9mMXvLQstFQ9aXm0YD4GpacTEjT8Fr9l0REW42MuZX//2Q==;" parent="1" vertex="1">
          <mxGeometry x="950" y="20" width="400" height="400" as="geometry" />
        </mxCell>
        <mxCell id="AnJha9FKsQBkjCKTBRiP-6" value="" style="shape=image;verticalLabelPosition=bottom;labelBackgroundColor=default;verticalAlign=top;aspect=fixed;imageAspect=0;image=data:image/jpeg,/9j/4AAQSkZJRgABAQAAAQABAAD/4gHYSUNDX1BST0ZJTEUAAQEAAAHIAAAAAAQwAABtbnRyUkdCIFhZWiAH4AABAAEAAAAAAABhY3NwAAAAAAAAAAAAAAAAAAAAAAAAAAAAAAAAAAAAAQAA9tYAAQAAAADTLQAAAAAAAAAAAAAAAAAAAAAAAAAAAAAAAAAAAAAAAAAAAAAAAAAAAAAAAAAAAAAAAAAAAAlkZXNjAAAA8AAAACRyWFlaAAABFAAAABRnWFlaAAABKAAAABRiWFlaAAABPAAAABR3dHB0AAABUAAAABRyVFJDAAABZAAAAChnVFJDAAABZAAAAChiVFJDAAABZAAAAChjcHJ0AAABjAAAADxtbHVjAAAAAAAAAAEAAAAMZW5VUwAAAAgAAAAcAHMAUgBHAEJYWVogAAAAAAAAb6IAADj1AAADkFhZWiAAAAAAAABimQAAt4UAABjaWFlaIAAAAAAAACSgAAAPhAAAts9YWVogAAAAAAAA9tYAAQAAAADTLXBhcmEAAAAAAAQAAAACZmYAAPKnAAANWQAAE9AAAApbAAAAAAAAAABtbHVjAAAAAAAAAAEAAAAMZW5VUwAAACAAAAAcAEcAbwBvAGcAbABlACAASQBuAGMALgAgADIAMAAxADb/2wBDAAMCAgMCAgMDAwMEAwMEBQgFBQQEBQoHBwYIDAoMDAsKCwsNDhIQDQ4RDgsLEBYQERMUFRUVDA8XGBYUGBIUFRT/2wBDAQMEBAUEBQkFBQkUDQsNFBQUFBQUFBQUFBQUFBQUFBQUFBQUFBQUFBQUFBQUFBQUFBQUFBQUFBQUFBQUFBQUFBT/wAARCAGQAZADASIAAhEBAxEB/8QAHQAAAgEFAQEAAAAAAAAAAAAAAAIBAwQFBgcICf/EAFkQAAECAwIJCAQJBgwEBQUAAAABAgMEEQWRBgcSExVRUlSSFBYyU3Fyk9EhMTNVCBcYIjSUobHTI1ZXc5XBCRklNUFCYWRldIGiYmOy0iSEo+HjNmeCg8L/xAAcAQEAAwEBAQEBAAAAAAAAAAAAAQIDBAUGBwj/xAAuEQEBAAIBAwMCBQQDAQEAAAAAAQIDEQQhMQUTURJBBjJSYZEUFSIzQnGBU7H/2gAMAwEAAhEDEQA/APa/IJrdo3Aocgmt2jcClPlM9vKcQcpnt5TiPOj0FKglCrUQUAABUKMLQYAFGFoBf6PgdYziQjQzt/g+InmUKprQWpaC70OvvCD4qeYaHX3hB8RPMsR6ihaED1EKgJoQPUBKi0CgwAAAWgv+Qy/Ww+JCvyOW66HxoYkeooyeag+9GeCUOQy/Ww+JCwAqAr5Sa0KAAZDRlk73GvF0VZW9xrzH0GAvtFWVvca8x4wtAGqLQKDALQBhaEUFAoNUBApeZbdpLyzoNUkX+kJLdluE5VZ/upvjliJQtBkdISW7LcY4KAKmAWgwUKlBSKtSlRdSlogBQKLqUaoqYuAACqAAAAATQgAACaAQBNCAACaBQCAAmgEATQgAACaAQAAAATRdShQCAAmgEATQKAQBNAoBAAAABNCAAAqTQCAAAFGFoupRgAUaotAAAoAAIOJQAHEoNUCkOLRdSjABSKpSoupQLoB8zE2HXBmn7DrgEAmhAD1EAmgBQYKhUAqIAAOBOSupRcpNaARQYiqa0DKTWgE1FoQOAtBqgIBNAoMADVFqFRAJoMFCMtu0l4EhUjKTWgmW3aS8CoFQqRkO2VuAigUJy27SXhlt2kvAkQXlUDrofEgwC0XUpVCoVAQAAB6iAACjC0K/JY3UxOFQKQtC45JH6mJwKRyWP1MThUChQCvyaN1T+FSgACUHIqmtCKJEKmQ7ZW4pZSa0EEgFQqSMtoqyt7jXiaKsreo95aVCpaogEHqLQqkUGAAEJoFF1KMAgE0CgFzVNaF5pGR3dbjHVKdC0GY0lI9R9gukZLd1uMTQYULQYAKgFoMABUKi0CgBQgcWgFSqa0L/AEhJbstxjKDAZTSMlu63FLSEluy3FgIBNC5y27SXlAWgGW50xvd8vcgc6Y3u+XuQxA4GS0t/cpX7DFE0CgEATQgAACaAQBNCAAudKxNlbi2AC90u8XSz9SllQKFoLjSsTZW4twAUBQe9sPpuRveWhXMda0N8ToNc7upUpUxrcbD2HLRMiLMQ4T9l8REW5TZYM1BmYeXBjQ4rNpjkVL0POeF+D1rxLe+Y2K/usVTuGB8vFh2LkPhPY/Zc1UW4RZsxNF1KFCpUlWnACaBCBxB6gABUAHEGqKAAAAAAAAAAAAAVAAAKAAAAAAUAAAAoAC0GCoAABUBaDBUKgAAFQAQeogAOIPUAqITQgAAAAAAKgKAUAAEoORUJjTbZsqHprLqmRtf0Xmx2MhiLZaupTOWTCfDgsivY5sJ/Re5KNd2L/SErgAqARVUcocpg9aziQblUHrofEgQehBHKIXWs4kDKTWgDUGGzb9l1wZt+y64BQIyk1oPkO2VuAUCKprQKprQCQKvJY/UxOFQ5LH6mJwqBSoBVzT9h1wmafsOuAUWhX5JH6mJwKHJY/UxOFQKQ1R+SR+picCk8jj9RE4FAogVeSR+picChyWP1MThUBKil5oef3GZ8F3kU9HTe6xvDUC3HLjRE9uUx4TvIXkMzu8XgUC2FoXuiZ7cpjwneRGiZ7c5jwneQFrQXJXUpktB2j7vmvBd5Ccgmt2jcCgWFF1KFF1KXnIJnd4vAocgmd3i8CkUW1F1KUstu0l5kOQzO7xeBStoB3Vv4RBictu0l4ZbdpLzJaHaGiGkiwzb9l1xOafsOuLrQr9/heInmVeb0be2caEUWWbfsuuFzT9h1xeaGdv8AB8RPMNDO3+D4ieZAs8zE2HXBmYnVuuL7Q6+8IPiJ5jaJ/wARgeKnmVoxtAzMTq3XGX5rwPesr4zfMt9Ef4jA8VPMtiMfVNaCVMvyOW66HxoRyOV6+HxoWGGz8PrGcSDUXUpmMzC96N8Ejklm++ZjwFIo5DhZhfJ2L/OE7LyH+Zith/8AUqGHlvhG4LTs7ZFky7osduqEuV9xo/wr4Vke/Y3gnEcWkKyefdkfy7G6WR7H+tq7REV9BMzE6t1w+ZidW64vdF2Tvca8aJZtkQfaTkVneWgpF5pR24S1yBpR24S1yGl87pPfZfxW+Yc7pPfZfxW+ZCW8aVXcZb7C254O3OVvQ1TnLB3iFxoWvPazNcLiQDddO2h1MtehT5zTeqS42ml875PfZbxW+ZguckHeIXGhFTHVuef91lL0LfnPNf3Ljacs5xwuvh8aC854G8weNCIl1zndO7/J+EhUZhNaMToTUs7uwUU47zrld7geInmZuycMJKH056Wb3ozU/eWOW/vtKND6bHN7yKhGlIuytxoFrYew4nQmYT+69FMhzuk99l/Fb5hFbvpqY3yJ9WXyF0zM75F+rL5Gn87pPfZfxW+ZW5zQN4hcaBDZ9Jxdl1xRfbSw+mqN73oNX54SW/S3it8zC2tjQsyJ0HQnd16KB0PTibbbyppldaGmc/bH62B4jTF/G5Yu8y3it8yKOi6ZXWgmmXa0Oe/GvZPXQPEb5i/G3Y28S3it8yImOi6ctTrlvF5dNb4zjQ5l8eFldfL+I3zKvxv2JvUr4zfMsnl0F+Es9D6c21veeiFLnqvWN4kOZ2tjZseJ0I8u7uxWr+8xfxm2f/y+JCtHX+d0nvMx9onPCS3qY+05H8Ztn/8AL4kKHxlSOpl6CDsnOFPeUfiL3l01vjONDkHxjyew28zHxuWLvMt4rfMsOicont5TiF5ZOb2zjQ5t8eFldfL+K3zK/wAcVhb5KeOzzA6Fy2b3tnGg/LZve2caHO/jasfeJbxW+ZHxx2Dvkn47PMDo2l3i6VibK3Gg/HBYe9ynjN8zcpWYhT0HPS0VkxC6yE5HNvQmIq9yk1oGlIuytxQAlCrVNaBVNaFOhBFDvish9N7W95aFNj2xOg5Hd1alpayLE6CK7u+kLGRdSiC8AAJALQYAColSaCFomPG/wrJuBEiKxkaG5+y1yKtxxTFvNQYWG9lxHxobGMnstznOREa3Wq/0Idn+ExYDm2986E9O1qmkYssTmF9q21nJCyokkzatGA6Gl7kQtEZPoFEckGLm4ioyJsOWi3GtTuMGWs/2UFbY/wAomd/6amGh4v5vCSFm8KbUmbSg7EFVgy/h9M26zrAs2yvZy9exCmaI438i7GN+ddg/Wov4BffI3xj/AJ8WH4Lj03z9g7s7hDn5C3V/CWVeaPkZYdfn9ZngPKXyH8NP0gWV4Lz05z8hbq/hE5+Qt1fwhLzv8i3Df9KNnfUov4xT+RjhB+kmD+zoh6M5+Qt1fwi8+4W6v4SKh5++RnhB+k2F+z4/4pdfI6wk/SlH+rv/ABTu/PqHur+FQ59Q91fwqVHEPkS4QfpSjfVn/ih8iqZ/SVaP1NTtXO6N/aHO6N/aBwv5E/8A9wZvgUr/ACKU/SFN8J27npaXVSt6Bz0tLqpW9C2I4t8itv6Q5rhD5E0j+ke1eBTtPPS0uqlb0DnpaXVSt6E5DkvyMbP/AD+wlvaUPkSYOfnlbX1dx17nbG1KJztj6nFYOU/Idsf9IGEPFC/BKXyFcGfz3wi/9L8E63ztj6nC87Y+pxNRY5D8g7Bb86cIPrEL8IuvkN4F/nBhD48L8I6pzsj6nBzsj6nFSOa/IpwA97YR+LD/AAQ+RTgB72wj8WH+CdK52R9Tg52R9Tgs5v8AIqxf+98I/Fhfgh8iPF1vOEH12F+EdG51x9lwc64+y4Dn/wAh/ADr8JPrrS4+RPiw6i2fEebpzhtHeU4g5w2jvKcRaIad8iPFX7ttf647zLn5GuK383p762vmbNzgtLeP9wc4bR3lOIka78jvFf7kn/2nH8ip8j/Ff7ltH9qTX4hnNP2lvH2kc4LS3j/cBgvkc4q/cM79cXzL35MOLT8z5n62/wDGL7T1pbx9oaftLePtAtPkw4s/zSifWl8y9modmw43ILNgpLS23Sjbynp60t4+0taprQpktFImhA9SIkVFoQPUkW2Q7ZW4iyWrD6aK3veguqiATQgeogAAAAFOi6lKgVCY0u3sVMhb1tZdpxIc0zaRyKl5tVmysjZXs5VV7GlWg5FKSgUGqSQg+SupR6LqUu+QTO7xeBSdHzW7RvDUmizoupRch2ytxfcgmt2jcCjcgmd3i8CiDH5DtlbhMtu0l5k+QzO7xeBSNDtJFnkO2VuKeW3aS8yXNeb6/wC0qaBd1b7iKMTlt2kvKmbfsuuL/RDSOb0fe2cSCCxzT9h1wZt+y64vdCu3+D4ieYmhX7/C8RPMkWuafsOuJzMTYdcXmhXb/B8RPMbQ6+8IPiJ5kUWGafsOuJzMTYdcXehnb/B8RPMfQ6+8IPiJ5kCxzMTq3XCZmJ1brjJ6I/xGB4qeYmh194QfFTzJgsc0/YdcGafsOuLzQ6+8IPip5hodfeEHxU8yRaZmJ1brgzETq38Kl/on/EYHip5j6JT3jA8VPMDE1TWhNTKciluuh8aDcjluuh8aEUYbPQ+sbeGeh9Y28zmag+9GeCGag+9GeCQMHnofWNvJoupTN5qD70Z4JT5HZvvmZ8BQMXRdSiZK6lM1ySzffMx4ChySzffMx4CgYii6lEoupTNcks33zMeAonI7N98zPgKBi8xE6t/CoZiJ1b+FTJaLsne415GjLJ3uNeBjczE6t1wtDJaLsne415V5Pg/rmblAxFF1KNmYmw64zGYwe1zFylvyqxtic4FAx+afsOuKeUmtDJcpsfYnOBR9ISW7LcBi6prQKprQy+kZLd1uI0jI7utwRWMzT9h1wZp+w64yPKrP91N8cOVWd7qb44IxdRKprQzmkpHqPsKWkJLdluJhWIqmtBOUQutZxIZrSMju63D6XTcpX7BSMFVNaD1TWhl+dMb3fL3IPzpje75e5CErDlU7vTeIq8qnd6bxFnQYmi45VO703iDlU7vTeItwIFblM9vKcQaUi7K3FGgAPyie3lOIflE9vKcRRHJgfSkXZW4nScXZdcUKDVJFWqa0DKTWhTEoBXqmtBaiVJAaqa0CpSoNUCSKhUWoBUbIdsrcWM1aklIwc7MzcCXhbcWK1rb1UsYeFcrF6E3Af3YiL+8ni8cjM1TWhNSwg2pJTPspyBF7kVq/cpetRX9H09hE794KlQqIrkb61RO0bIdsrcT9uRNQqKBAcCKkgBFSRKANUKi0ABqigFAAACoAFQFoA1QFoMAVEJoQA9RAJoBA9RaEALQYAAAqFRaAVaANUUAoFBwABKDgAlBwAAEoOAABFSQEHEoNUCRKDVJAShTe9sPpuRveWhWqWFs+zy/6m1/ReaSXKfSivMfwgMZUW0px9lSL0lYbOlVaZPbqPPuDkvhfan/0/aFo/wDmGPT7zYMcNupEg2paDHtfMv6LGrVzuxP6Tk0nORZf6BDmpTvR1afeex03RdJr9/V9dy/fwq9Fy2G+NjF/DzkzgxaUyzabIxVS/JNpwX+FlGZDzlpy75Bm1NJm0vdQ5li+w3tewsHtMQrVmtKdTGVZiDf6UMpZmHFq4ybC/laDZ0D/AC8BF+48fT0WPqmd09JquHz+6tsemsGsd9lW3CzuegOhbaRWql9TeGW+yI7JbFY52pHVU8RzcLAOVmWOnbOtKVmH9GbwbiOa93ZCX0rcXdk23YVhWHymz8YEvGn93mYT0icKrU5uq9Lz6TKaNl8LY17oRUX1LUV0VjOk9re1aHjrAT4SduS0PLmJaYn2bUNjnpeh6LxX42LHw/jrBgx5eajJ64cGK17k/wBEU8/d0W3TjMvovF/arcz5b5QcioVODmVKQAioEiUGqFQFoORUKgKLQYAAACoAABUAFoNUKgIOIPUAEHqIAAAALQYAqRQ1U1oTUynIpbrofGg3I5Xr4fGhIxlCKj1TWhSoA4ARUCQIqSAAAALkrqUmqa0KtU1oXnJrA/vPCoFhkO2VuFzT9h1xecosfq5zgUblNj7E5wKBj6DVCpThxGxYeWxyPZtNWqXhPFPRdSlnasJ8SxchjHOfstSq3F5yqD10PiQmJMQoPtIjGd5yIaasdmzZjjjeJ5v/AIpl28vnfjRwffLR8xFhPhR+re1UdcpoVr4J25g//OljWhZv+clXwv8AqRD3vjUxMWVjAgcrlo8GWtv3q56I7wzR3YEYcYPfyVBSzcMrI3iI9srF/wDUPs8+t6P1LXhdl+nPHt/2y8vOOF0vFwLwN5O2G9kx1StVHXes2fBOUlbLsXIhR4Tn7LXoq3G3WxKYPzcnl2tZlo4O2ptWpAc6D9cgIsL7S3ZnrQh5xLOtWZh7cyrY6Xw0PpPw9sz6Tdlc+PpvjvHPtl7OfYUyEzhDhNZcvZEvFSYZ0oUNiq9vaielDlts4MWxg5a+ftayZ6y4HWTks+C29yIhuOMi17WwfgfydEfJ231jvmuMDbGMnCLDGwoSWxaEeYWL7Ossq5fZ6PSfNesbbv8AUcrPlbT2xy5dAxZorrB9CV7Du2LHCewZdbCs5ZRLMtRPokeClM5+s/8Ac5TgpZLLJsXNw1RX7Keu43LFJZDMIsPcFmw/yzofTRnzlb209R+ndTrxz9FkyvFkYaZfqtevKLqUXLbtJeVqprL3l8nuy8J/PuWqas7x93fgx9U1oJlJrQzWkZHd1uKWkJLdluKtWJy27SXjF/y+T3Z3CWFAAKBQcBAAAAWg1AAKjclj9TE4VKdC70rE2VuAs6prQfMxNh1xlOcdp7zL+AhT07H35/1dfIIqx5LG6mJwqUi50rE2VuLegIgAAJAAABUUAAr1FAAAcQaoBUWgDgJQcAAAIqSBFSRKDgBFSRAA5pjjxqwsXth5MrLucupqHSzzfjvgvt7CfRjWOiQdbUqhlnZPL1vTeiz6/dNMvE+7lz/hY4VQ+nJNb3m0MYz4T+HFofSILIffSn3lnbOBH5TIzTsvZyVrcbBg3gVbVtRMhZ+XV+ykFK3E4y2cx2b+i9O6fblqw35XjzxOYwnx34yMrJyPnaslaiwMZeMaZhsfBspIrH9FzIquR3Yqes77ExBNhYMPtN9qMZGZ0kdIwUVvb870HPsZWLaZxeWDZfJfTkdLJl4Pze353oL/AE34ZcdHq8ZXL/ucNUs/G7h6lmZ+JYMGfldymoS5fCqVMfFxiz9qLyiHgvOWY/rZTKgx/EhVYbVbVjLJRHslrQgxns6TYcRHK3tRF9Be2NYa83svIdkZWRlU9GVq7f7DLPqd3Tf6u3L2PS+h6H1XqJo2X6ZWPxf4QWc2FmcIoMa1YW5W1JLFb4rUEtLENaFjW7FtGw8HIc7Zcx9HgWO+mY7cqtDIaIad6xJ2lFtWwvyjHJ87I9Kf1tXadnp3rPUa+pxyyky4d/4j/C/TenarOmtscPwQsB2E/t4TrH/zbVhf9VDt2LDFizAu1LYtNsJzIs39FRWqiwfI6Ro9m1L/AFdC4PsPVfxHt6zTdeWPHHw/M8JccJh8Cg5FST4uXnCVtiAACqyKkiUGqBJFQqKAAAANUUAAAqAgDgAVAQeohNF1KAZK6lChXKVQEqAtBqgLQBqigVQAAAAAAoNUkSgDVJEoOAlBqkiUAcAACKi0Cg4CHBsOJaLAw6yokJ8NNb2qh3k0PGzi+mcMIPL7Pj5mZ2EX51xh1Gr3NWV+H0PonVaul6nnZ5s4n/rz5a6K63fmpXsM5i4ckK3vnqjO8tAwxwKw0tC2suPZUXI2pGA56XohmME8F8JsHray5LBOdezam+TNS9XFen6nLHVMePDr6n0TLVf8dk4tt8z7um4x7PnbawLtSBZkwkKO/ow2r853YnrU5dhRgbadh2F/K9pw7X/VREifcdE5z4X+47Q+ry/mW9pc5bVsXIiWPOI/ZWDLVuqdH9Vl8ODL0nP/AOk/mPO+Q7TVsPyVyG+t1PQn+pvVksdDwLZAe1Wxnz2W2G5KOc3Wif0p/aVfiqj/AJP+T8If/G+2/wDCwfmdvp9BmVxd4SKlmJoViZHS/K9Ht1HJ1GzLbj4ev6R0OXTdXjnlvmM//WnRGrB9ois73oOy4gmqmDmeVFSFy7Lzn9XJ111f2mlwsUWFdoLWNmmd9aHccG8FpfBWytGQHtWFratUPG6bDKbLzH2n4t9Y6e9DNXT7JnfvwyQBQmi6lPp/+MfjOd+rP6vmRA4lByqqKki0XUowAIOJQACgDVAUACgBQBxACotAoGW3aS8BhCc4zabeTm37LrgFKtSjlt2kvKlQKmUmtChUBaLqUihhRhaCACgUGqSGyk1oGUmtDK6Rkt3W4NIyW7rcWoxlF1KQVaprQpFQ1QqLQAHIqSJQBqkiDVAmi6lIyk1oVaprQyXOmN7vl7kLQYfLbtJeJyqD10PiQzHOmN7vl7kJ0t/cpX7BRiaLqUmqa0HqUKFQwAFAAACoFKi6lKoUAB6LqUjNP2HXFXKTWhdacj77E+rL5AWebfsuuHzT9h1xc6cj77E+rL5FTT0bfn/Vy0GNKvJY/UxOFSkXelYmpbhRT5LG6mJwqLyWP1MThUq6WfqUNLP1KVFHk8Xqn8KlKpV0nF2XXFAAAAoADVFABqi1CgtAGqXuj4HWM4kLChXqmtAKuj4HWM4kI0K7f4PiJ5lCoVTWgFxyCX61nEhZVGqmtCnRdSgNUepSoNUAqFRaBQBqigAFWgDVFqAAAAOINUUBwIqSAgAFAHAioVAUcQaoEiUGqSWgSg4EVFTC0FoupSqBUqKigFAgUHAioBUUAoA1SRBqgKFAoNUAqKAAA1RQAAAAGqKAVAAAAAQeogC0XUpVqFRACotAGAAqFRQAAACqLQYACoC0GoAUAcQAHEHASg1SRKAFAoOACBQmi6lGoAlBqk0FoupQJqLQnJXUo1F1KAEVGyV1KUc4zabeA1BqkZxm028XLbtJeA9RaEZbdpLxstu0l4EUGqPm37LrhczE2HXAJQKFXMxNh1wZp+w64BKij5mJsOuDMxNh1wCUAq5t+y64XMxNh1wCBQfMxOrdcRlJrQBQqRVNaCgOLQaomfh9YziQB6gUc9D6xt5WoAtCBwzT9h1wCE0GzMTYdcFQKVBqjZt+y64XNP2HXAKFCMpNaDZSa0AgCMpNaBVNaAVcpNaD5t+y64yXOO095l/AQo6dj78/6uvkXRFnmn7DrityWP1MThUuNOxt+f8AV1E0u8JUeTRuqfwqLySP1MTgUqaVibK3FTSz9SgW/JI/UxOBR+Sx+picKlXSz9ShpZ+pQF0dNbtG8NQ0dN7rG8NSOVTu9N4h+Vzm9N4gE0fNbtG8NQ0fNbtG8NReUz28pxByqd3pvEBV0fNbtG8NQ5BNbtG4FE5VO703iF5TPbynEBV5BNbtG4FDkE1u0bgUpcqnd6bxByqd3pvEBX5DM7vF4FDkMzu8XgUtuUT28pxByie3lOIIq75FMdRF4FJ0A7q38JZ8pnt5TiDlM9vKcQIu9ENG0Qws9Jxdl1xGlIuytwSvdEMI5BL9aziQs9KRdlbicpNaBFXfN+NvjONCNDO3+D4ieZZaTi7Lrh8pNaEVC80OvvCD4qeYmh194QfFTzLSqa0FETF7odfeEHxU8w0OvvCD4qeZY1CpJV5odfeEHxU8xtEf4jA8VPMx9ABGS0T/AIjA8VPMnkcr18PjQxgtCKlleRyvXw+NB+RyvXw+NDD0GqIMrySV6+FxoTm4PvRngmHoFBRmM3B96M8Ejklme+pjwFMOAgyvJLN98zHgKUNFWVvca8sqECjIaLsne415W5Pg/rmblMSBUX3KrG2JzgUOU2PsTnApj6DVLQZLSEluy3DaRkd3W4xdRSRk9IyW7rcPpGR3dbjEgRRVEHqIVAAE0AYAAAAAAAAAHEGqKADVFAAAAAcCKhUBQAAGqKAAAAAAAAADiDVAUAABqihUKgABUKgAg9RaAMAVCoCAAAPUQAAAAKgAowtACgDVFAAAioDgTQKAQOLQagAFSaLqUSi6lAaoC0XUo9F1KBAVJyV1KUc4zabeBVCouW3aS8XLbtJeBUqBTy27SXjZbdpLwGAXLbtJeVMh2ytwCgNm37LrgzT9h1wChUbNv2XXC5p+w64cwAAiZXq9PYRlJrQciahUSoVTWg5geoCVGqmtBO/gSFQqIL28h6k5DtlbiikRjvU5q9imIncKZazvpc1Alf10RGfeoGXfEZD6b2t7y0JVyN9aonaaHbuNqxoPtJiWZ3orU/eY3B3HhZVr9OPL+K3zCY6fVNaBUs2T0tE6ExCd3XopdNRX9FMrsBTVHqUcpNaE51m228jmHBqgU8tu0l5VyV1KPqnyjwgCaLqUMldSj6p8k7+EBUnJXUouQ7ZW4cy+C9vKai0JyHbK3D5DtlbhbJ5PJahUM2/ZdcGafsOuJnfwngpFR80/YdcUqk8VBqi1ComUmtBxU8MlyCZ3eLwKHIJnd4vAplOcMXcrP+uN8yecEXcbP+uN8zmmzD9UX4rE8imOoi8ClXRs3usfw18jIc4Jjc7P/aa/glPS1oarN/ay/gk+7h+qfyi434W2jpvdY3hqLoyc3SP4a+Rc6antqy/2v/8ACGn5rrbJ/bH/AMI93X+qfyTG/C20ZObpH8NfIXksfqYnCpc85Jjr7I/bP/wlbnPaPvSzv2g/yHu6/wBU/lPF+FnyWP1MThUjQzdSl/zntD3pZv7Qf5Dc6pjakfEaPd1/qn8nF+FtoF3VvuJ5tRt3i8ClfTzesbeJp+U6yzvCeRduv9U/k4vwp82o27xeBRdBLsOuK2n5TrLO8J5HOOD7xkfqUQj3MP1T+UXt5UtBLsOuKfNmZ3hLy45ywPeUj9SiDc5ofvKT+pRvxR7mH6ojmLfm3M7y3iG5uTG9N4h+c0L3nJ/Uo34ovORnvKT+pRvxSLsw+YcwvNma3hLyX4LTcPpx8nvLQwdp4z5GxYmRaFu2bIP2ZmWiw1udGQ5zbPwkLA/PqR+ouHMvhaV07CiYhYPxMh8VkJ+y9yItxjNNWfv8t4zfM8QYe/CPmLetrLbhNHiM2mw6pean8d81+cU14KkxPL6IQbVkpmJkQpyBFfssitVbkU2Ztio/ooruw+bWCePmJLW1nI2E8aEzafDoh6bwI+FTglaftsMZxvesuCn7xTl6O0Euw64XQ7TXJfDCwZv2FvNjfq5SWd90MvlwhlG+u1rSTtlpP8Mxy6nHT9/KPLK6MhbTbx0sZHepFXsMZzgg++LV4YP4JzTCXH9g/YcxmFt23GR+rVISOuzNRj1OO77+EcNlwrtWSwbiZEacl4D9mJFa1blU8s418J5y0fok6ya/UvR/3HPcaeOiysIray4VsW5GZtQ5ljkvQ5xzykd7j3nRipcp8thtHB+YtX2lsx07XiWbIwrK9naUdexxqnPiytmc4FKfxgWdtWv4rDWVW2PR9k41LSh9OcazvPRDt2A+GchaftZyO3vLQ8Cc/LI/vXCpXs7GjAsr2cvMr2R1Mtn2aa7H1jlbLhT0POSzkmGbUJcpL0MrzQhf2HlT4K2NSHhjZOYiQ5t0fq+Xx8q6h6JfaElD6bJlvetCOn7ji2dTq0f7Pu3k58Nk5owf7AfYLofThub2pQ1fTNm7Ub9pRvIx9rYRwInQgzbu7Px1/wD5MZ6l0laY6Lt8tx0XC2kvCJIS8KJkPisY/Zc5EW45k/GTCh9OxnN70ahqdq46rWsy2suysDmTTNqNakZUvoT/AHHpfhtOh2X/AF9nf9CpsqLolmtDmMPCFkbOZuzZF+a6eSsRcjt1Fjz/AIHuGW4IpW+r9Nq8RP8AQ7J/svLrsSzYUH2j2s7yohOj4HWM4kOby+EFiWr7SxrNTtgM/wC4zWalOqs/6i3/ALiJ6t0+3zGWzR7XDasxJbzB8RBcuzN/lfGb5mucsXZsTw3FtzltLepbwEF9U16/9THitl0hYnvaR+ss8yo+2sG4fTm5RnejNT95oPOyb6uH9V/9jHWth3hPE6HIH92AimWXrGSHTmW5g1E6E5Ju7sdi/vI0nYHXy3it8zndk4YWrD6c+9vedCQr85bS3qW8BCv94yWjHaSi7DrlM7nGbTbzA0L3PQ9tt583zJ5dd7eWZy27SXmvvkJyH05lre86hkUjwneqIxexyFC1o0OJ0Htd3VqZZ2du7TCwZ1m228xmeh9Y28aphs4zabeZyxrO/hcZxm028yfKIXWM4kNcy27SXlzU0xynyzzxt+zO1TWhkstu0l5h4b2xvZuR/dWpe51m228m5T5Rhjl8M/UxFF1KWmm/+Jt5dPm4EPpxobe89EK2ypyxvwnLbtJeNnoe228sIz2y3tXJC760+8t2TUGJ0I0N3dcimuvv4ed1Ms45ZKhVKOeh9Y28rNRXw8tqZTNpPVebx5uajVNaBHnZeV9tHhQf1j0b95RivbA9oqQ++tDzX8JDGlaOB/s4MVP/AMVNMcbcpxEYNS+EdjOfN21lwIrYzNqG5HJeh51tadm4nQnGO7r0UTCfDGJbXrXK7FMXyiF1jOJD6XRLMWssTnGbTbyM9D6xt5Z0LXLbtJedeJbF1lt2kvMrZtt6K9m5F7FNdzjNpt4Zxm028tfy1bF7HxOY2YU19Lm4MD9bERv3qehsHMbFj21EyFjy6v2UitrdU+ZNm4WxrJ9nVew3jFnhvajre9EzXscfM9Ro9zLu6tVnd9NnTUFkPLdGhtZtK5KXngf4QlnMsvDTPwrQmHQesRVyb/Ud/wAYWMOZwesL8ojoPfTJ+88W4c4wZrC/2rXr/oRo0e1l2X2WfSwWcZtNvLZ8aHD6URre1UQt89D6xt5tWF+C0vg9K8psB7LQl+ucuUy/1H03/GPn7+atdz0PbbeWeW3aS8oZSa0FqWxaY2LnLbtJePlt2kvLGhUeub6fze96C9/LXThZ8vS3wTcYUDBW2suZm4EqzajRUYl6qe0bWw2s6J0LRlHd2O1f3nyqs+2XWR0FNyiY4bchZWXGczJ9eUtKHzPU6fd55ez0WU/y7voXL4QMm/YRWRv1bkd9xtD5iFDh5b4rGs2nOREvOEYkLcS2pblKva6X66vzL/UdbtX8pYuQz5z9lvpW4+Wz0+zlf3e3rYq1vynQ+d3fSYtjVidBFd3fSX+iP8RgeKnmWdkTEJnSisb2uQnHv4dOC7iYNy1nZvMWnGfy322Q6uR26ivEnpaD7SYhM7z0Q1mYwgZKe3isg/rHI37xpbC/B+1+nNSnjN8y/wBOV+ycnWbJWy4fThtb3vQZVn5TofO7vpOf/GHYe8S3it8zN2FhXKxehNwH92K1f3l8cbPMef1Hfjhknpm+n83vegjKTWhNrxWP6L2u7FLXOM2m3mk7eXmbfsfLbtJeYyi6lK2W3aS8gnmXw5cjaPgdYziQWhGbfsuuKiNV3qRV7Bzwtg1740bN2oXGhQ+M+ztcPiQ+Zvxp4Ue8F4hOfdqe+JjjPdnpk2+THf7vl9GMIsd9lWR0I0DxW+Zby+P6wZr2E/JRv1cwx33KfNu0cL5i1faTs2nbUizsIrQsr2c0i9jif7NF5lPl9SvjTsvrIPGhqnxv2JvUr4zfM+cnP20/fMxxlbntau8faUy9HjXHd7fh9GoGE8Ca9jMwY36t6O+4yPOqW3uB4ieZ847OxpYT2T7OfVexw/xq4Te8f95Wej4tserr6TxMaNmWd7B8J/deimH+OyzOtgeInmfNr418JfeScY/xpWpvjeMX0fF0YdZX0U+OKT1MvQ1+2vhE2W31zEunbFb5ngXn7hH7wTjMXDwgtG0fbTKQ+86htq9Hx7qbesvZ60ws+FbOTPsozYvcei/cYCyfhWTkPpxkb3nUPMWln6lJyk1odmHpuOrw8vqdt3cfs9cfKumuvbxoeiMB8dmDlp2LkRp5zH7LoiIt1T5o5xm028ylm4cWnZPs5lF7HE5dHHm5vZ2M34V0tI/R3w4v6t6L9x54xl43ZrGL9Ir/AKnLLStpbV9o5E7VMdpZ+pTfRo9rn92bKZbdpLynnofWNvKCxWN9b2p2qY/OM2m3nbiir/SEfq38Kj56H1jbzCaXePnoe228uiMjlt2kvJyk1oWmW3aS8nOs223hthV9nGbTbzL4MWu+xbay0q1m0vqvNWSPCd6ojF7HIU9KxNS3GWeqbfLbF6fw5x+yWF9i5EV0NX7OWlbjzvFtd8uzLi/k2bT/AEIWtTK4D4WPwEwg5dMyMtblnbtGo5bjOaZr8Mtst4W0Zqy6ViosNP8AjShl+dkfRejKOzOunoOjYbYnbHczTtlRZmVl9zn0WG/hd6Tjxpi4Nl8KuUmtB6lpVNaFxlJrQ0Ycq1SLWckToKju76SKLqUo1Iq+Nitg61bY6SL/AKnQsdT7JsCJY8OQayYfKfSmwVRyxrvWaFZ0Vlleze1exRsJ5yZtq1s+sGI6D1iNXJv9Rz7NU28c/Zrhu9rKcO9fB0xqJZ9m6KmpiHLQ/wDnPRn3nrCHjcsaNDzkOYlnw9tsVqpfU+a9h4PWvAwW0rJJFmYn/JYr/uL21pLDLBWxtLzNovlE93xlVkXgX0/YeZ1HpuO7j9n0+jrf8fL3h8b1ib1K+M3zNStrGHLyX0acgRv1cVrvuU8Oc9LW69byvz1tXePtMtXps1c8Oqdbz4dnxh49ZzCv6Eqy/b6DnMTGTbNnexjOf3PSaTpldaFlpWJsrcehp6Od2G7q72dM+OO2+vdedexRfCAjWD/O0djv1j0T7zy5yqB10PiQraVialuG7o5eHLery+H0iwd+EZZNr9OalvGb5m6/GtZXWwPEb5nyys7CG0LK9nMovY4Oftp++ZjjOHZ6bNvHJNt2+X1D+Nqx+vl/Fb5l7zykd/lfGb5ny55+4R+8E4zK/GnhR7wXiMv7ZNXhXJ9Puech7wlfGb5muW9jysizvYTEs/uxWr+8+dXxr4S+8k4zW7WwwjxOhPTTu7VS09Nm3yr48rfMROrfwqW0X8h7X8n3/QfSGJ/B1WbCh5b8KIjGbToVEvLaD/B+4PSX0vCKJOdyDlHtZ9RNX3dGHSY/L5yD0Ppb/F4YB+9bY+sMNY/i5rP/ADli+CpXHrp8tP6TH5fP/RsLbbehGafsOuPoP/FySH5yRvAUvv4uOR/OSN4Cl/6nHZ5qmWn2/D535p+w64p8ni9W/hU+jH8XLIfnLG8BSp/Fz2f+c0XwR7mH6p/JMb8PnJoZNSltoJdh1x9JV/g57PRuUuE0VG68z6CP4u6yvzqd4ZeWXxVuK+biS8V3qhPXsaonIpjqIvAp73wv+AtYWC30nDRkr+uyWfeeZOY2D/vB/GaYq1x7IdsrcV6LqU3zmpA2mi82JXrId5dlleGoUXUpRWDEb62OTtQ2VlnwInQiMd3XIp3GwPg9WLaftcJ3M70NEIpjqm15ugykeY9lBiRO41VKObfsuuO1YV4oZrA+Hlw3qjNqnovNYfgzKQ+nFht7zkQiWM9uqauGvWJNS099IlHwv1jFT7zUspNaG0W7Oy9nexjwn9x6KadltzeXlJkbVfReTzy8/dfBcpNaBlt2kvLfKTWhBaOZmctu0l5TYuc6Hzu76S3qVLJe2H03I3vLQVfFlLaslkl9GpG/V/O+4xjVy42ab86LsJ0rhtLuOpYDYu5a1JXScRWpG1L6zPLs3wsaDGwbmJb2s02F33U+8taLqU71hbi8lY8HPQlbEhbbFq28s4eI7CaNDzkOz8uHtthKqX0M/qk+7omWMxvNa1LYysILdsXN25aMa1n7MWWWAv2ohp9pysaxX5FoQYkg/ZmWrDX/AHUNlncBLXs2NmpuHHlYuxGY5jrlNvsbReGFhaOtmG2PanXr6SLlL4rwNtn1OPIqO9S17CqjkdkUVFy+jT+t2azKW1Y7ZL6Mme/V/O+43vGtg7EtPRFqq2Ss6193l3tSETLGLn+W3aS8pQZGZmfZS8WL3GKv3Fu1yPiZDVRz9lFqtxuOCc5Alvax4cLvvRPvLwabRdSmxJHhLY8OCkRixYvQh5SZT+xP6TBUN/dgdDtbBiLadqJyaLJexSAnpf2aymbTFSwZxgy1h2XozMK2DrVKIaZh3a1r4We3e9O8imWsLB6JaLGPjQXsa/ouc1UR3ZrPS+LT4Hlm4cpVML88n/A1HfcUxzx+Xr9Frx2/VzXi/k0bqn8Kj8ni9U/hU+jn8XXZn50P8IP4uuzPzof4RtHrzTNXj7vmpDhPi9Bjn91Kj5mJsOuPWGOv4MNi4suhhM+F3odDi7MF5WJ0IjHd1aloVz7RcLaS8qZmJ1brjeOa8r1jLyhouFtJeXilaVkO2VuIWx2t9fo7ToLMGZSJ0IsN3dcinQcFsUK4Q9C2mRe5CyvuFI4CyVjxOhBiO7rVUq5p+w64+g1kfwe8tDplYRTDcr1Vl1Sv2F1L/wAHbZc2/IgYUvjP2YcLKX7DLKyLx86eTRuqfwqW3I4/UROBT6UxP4OmzYPtMJ4jO9BoQn8HVZq+rCiIv/6jL68flvj012+Y37F5hRb89YuRN2k2ffsw35a/YdOS04q+prl/0PnNgF8JWZsHpRmw+85EPWOJ/HBLYZxMh1oSz37KRmqt1T5bqMbMvDHHu7ppWJsrcWOdtDr/ALSrlJrQbLbtJecVrSdmGfbdqw+nGc3veg1fnVb3vJviIbPa0N8ToNc7upU1vQa7DrjHP7Ozp8pOe6hGwrt2W9rabIXfiIn3iMwst2J0LTY7uxEUw2GEpHf0YMR3YxTKWLYzXepK9hnj+aOnLKfLynjgxwYycDMJNHtxh2qyW21jQ0becjX4UeNhPXjEtpP/ADj/APtN++FdHgaay+RRMjayFpecZw0sGQtH6DMwZbteiH2HSfleX1m/2vp4WtvY4sPbe/nPCm1Zvsm2L+81XnBaW8f7igyBFiRMhkN7n7LWqq3Fo9qw+mit73oPV1vJz6ysrzgtLeP9xYaetPr1vKVU1oW9Tdld12+WxWTbKw+muT3loREw3tezvYWtNP7qqphctu0l5bVM81Pe9rw7PYFt4T4zMH8qJNviN2m1VDH23i8t5nSmXJ21NKwHwng4HzHKocWa5FuiIuVcdTlsf1np/N8g6Y/zDTm243zIpd12+XIrflI8tGzUaDEhRdh7VR1ylxohmhcj+vs/0m6Yx5GXiyelWRYb4n/C5FOepaz3epK9hOm+VaxrIMSJ0Ibnd1KlWNBiS0TIjMdCfsvSi3KX9kvbD6bkb3loVMLE5Ta2fg/lYHWM9Lb09B1RVaVTWhTiPbBdkxFRjtTlopFTOc2o03gxpOagRIEbVFYrV+0kYCp1jFhhbGs2w1SyUWcX/nek5QsGI31w3J2odIwewisjBKwMqC6Eqa0ehzb+/CK2jF5j6wqwSn9Dz0lZz02bRVrF/wBx62lsa+C62byWzbTs+etT3PLTMOJB8RFU8b2OlmYbWxy/NtizPVt9Lrjodi4DunMM5m27Egv0hLe3ZCYroELvKnob/qeT1HHZx7/s9DSMxgnhrChz9pMgS0zF6EOO9GOf2IvrPKOMXAe1MA7U5TIpFiy/XQmK5l6egyGFWHNoYORo+D8SBFgzdn+zmojFa1exVMhgvj6kpaNyC3bOiWrLdYxivbehHTy93HXIYc9MRY2aZCe+LsNaquuNtlbfbEiWXDtKKyZezpNykVW9qf0HU8YeIWxZKSfa0nFmZFzOksRFbk9tfUcDmYb5LCHImGOgO2YqZK/ad07eU4tjw/wMbgvbWclmK9m0xKpea0+Tjw4bHvgRGMf0XOYqI7sX+kzuEuGT7d9Tkf3VqXlqw3RbAstzGq9rOkrUqje3Ub4LtOOl2FasS0cAsqOisbrf6EOaO+ZEyHeh+yvruNnsbDK1Fs/RKQJdW6qoNn5aOw4B4r1w5wjsuchzcORkGdKViPRrm9qL6jdsb2Acvi7kOdEK3rQsezOqwdcsJP8AcZ34NuL+YsXB/ltqR0izfVOX593rK2PTHHi6kYHIbYrhXI7lDejH8Kek+fmGV2donHbdeU4eQV+ExjOSI5i4xsJke31t5VFqn+mSEP4WuN2LGzTMYNtvi7DZt6uuyS1wxw0wOtW2bHfZ2LuyJeHKfS3JGeiRvt9Jutu4AYGYYQdIWZLTNjTPVxmLDdctD6HGcYx7v9ZfpjjmFmMnCjDNUW1sIrTnP7Fm2L+8xdk4RWhD6c0je86hlbawbk5L6NGhxv1bkd9xi9EMNcazvWVmljWg2DnVj0hbar828ssu0euW8y8bBKdwXdyObirNSfXN9LL/AFFtRdSl2OfWVSsmYn4fTmEb3loVJ627Xsr+Z7Tm4XdqUqFWqa0K5Ix6yuoYqcZOMbCXTHKsY9uwuS/R85a70zndqnp/0PQeLzHJN4KYP8hncInTFobykZFS+p41krUi4M/RWuidxK/cbdBtl0zEyIKpFfss9K3Ied1ffF39Luu7ZHvSzsc9sYRQ85Cms+zahuykvQw1tYfYfSX0a1Z+N+rmYbvuNQxMSE1FwbzzJaK+D1jWKrbzp2h2nxe7bdWXZ+l6pfbx7P/Z;" parent="1" vertex="1">
          <mxGeometry x="1410" y="20" width="400" height="400" as="geometry" />
        </mxCell>
      </root>
    </mxGraphModel>
  </diagram>
</mxfile>
